/* XPM */
static char *meter[] = {
/* columns rows colors chars-per-pixel */
"40 30 128 2",
"   c #007F007F007F",
".  c #065406540654",
"X  c #074B074B074B",
"o  c #07AD07AD07AD",
"O  c #0A230A230A23",
"+  c #0A8C0A8C0A8C",
"@  c #0D150D150D15",
"#  c #123712371237",
"$  c #12B212B212B2",
"%  c #1C431C431C43",
"&  c #1D5A1D5A1D5A",
"*  c #1EAA1EAA1EAA",
"=  c #21FC21FC21FC",
"-  c #22FD22FD22FD",
";  c #249E249E249E",
":  c #257C257C257C",
">  c #263826382638",
",  c #273B273B273B",
"<  c #282C282C282C",
"1  c #297429742974",
"2  c #2A062A062A06",
"3  c #2B482B482B48",
"4  c #2E902E902E90",
"5  c #2ED32ED32ED3",
"6  c #306230623062",
"7  c #317631763176",
"8  c #338533853385",
"9  c #351D351D351D",
"0  c #363636363636",
"q  c #372E372E372E",
"w  c #388838883888",
"e  c #394839483948",
"r  c #39D239D239D2",
"t  c #3C513C513C51",
"y  c #3D2B3D2B3D2B",
"u  c #3F3E3F3E3F3E",
"i  c #3FF93FF93FF9",
"p  c #470247024702",
"a  c #4F914F914F91",
"s  c #54D054D054D0",
"d  c #553555355535",
"f  c #561C561C561C",
"g  c #56FB56FB56FB",
"h  c #581458145814",
"j  c #593259325932",
"k  c #5FAF5FAF5FAF",
"l  c #602E602E602E",
"z  c #611861186118",
"x  c #628E628E628E",
"c  c #64C364C364C3",
"v  c #667266726672",
"b  c #675D675D675D",
"n  c #6A666A666A66",
"m  c #6C686C686C68",
"M  c #6CF56CF56CF5",
"N  c #6FAF6FAF6FAF",
"B  c #757F757F757F",
"V  c #77C377C377C3",
"C  c #797179717971",
"Z  c #7B957B957B95",
"A  c #7C467C467C46",
"S  c #807180718071",
"D  c #815981598159",
"F  c #82B582B582B5",
"G  c #85D685D685D6",
"H  c #86B686B686B6",
"J  c #870A870A870A",
"K  c #886F886F886F",
"L  c #89B689B689B6",
"P  c #8B8D8B8D8B8D",
"I  c #8D048D048D04",
"U  c #8F878F878F87",
"Y  c #915291529152",
"T  c #93EB93EB93EB",
"R  c #96A996A996A9",
"E  c #99CE99CE99CE",
"W  c #9BED9BED9BED",
"Q  c #A0DCA0DCA0DC",
"!  c #A943A943A943",
"~  c #AB08AB08AB08",
"^  c #ACD1ACD1ACD1",
"/  c #ADC2ADC2ADC2",
"(  c #AED8AED8AED8",
")  c #AFAFAFAFAFAF",
"_  c #B309B309B309",
"`  c #B97EB97EB97E",
"'  c #BAC3BAC3BAC3",
"]  c #BDECBDECBDEC",
"[  c #BF63BF63BF63",
"{  c #C284C284C284",
"}  c #C60FC60FC60F",
"|  c #CC10CC10CC10",
" . c #CCC8CCC8CCC8",
".. c #D0E4D0E4D0E4",
"X. c #D2F3D2F3D2F3",
"o. c #D508D508D508",
"O. c #D594D594D594",
"+. c #D6DAD6DAD6DA",
"@. c #D7E8D7E8D7E8",
"#. c #D8B7D8B7D8B7",
"$. c #D99DD99DD99D",
"%. c #DC31DC31DC31",
"&. c #DD27DD27DD27",
"*. c #DEBEDEBEDEBE",
"=. c #E047E047E047",
"-. c #E11FE11FE11F",
";. c #E1E5E1E5E1E5",
":. c #E2C8E2C8E2C8",
">. c #E550E550E550",
",. c #E74DE74DE74D",
"<. c #E93BE93BE93B",
"1. c #E987E987E987",
"2. c #EAC3EAC3EAC3",
"3. c #EC32EC32EC32",
"4. c #ECB8ECB8ECB8",
"5. c #F003F003F003",
"6. c #F0C2F0C2F0C2",
"7. c #F424F424F424",
"8. c #F613F613F613",
"9. c #F839F839F839",
"0. c #F8AAF8AAF8AA",
"q. c #FA14FA14FA14",
"w. c #FAD5FAD5FAD5",
"e. c #FC4FFC4FFC4F",
"r. c #FD4DFD4DFD4D",
"t. c #FDE0FDE0FDE0",
"y. c #FF28FF28FF28",
"u. c #FFFCFFFCFFFC",
/* pixels */
"O 4 q q q q 8 q q q 8 q q 8 q q 8 q q 8 q q 8 q q 8 q q 8 q q 8 q q 8 q q q 4 O ",
"8 | -.-.*.-.-.*.-.-.*.-.-.*.-.-.*.-.-.*.-.-.*.-.-.*.-.-.*.-.-.*.-.-.*.-.-.*.| 4 ",
"y <.u.u.u.u.u.u.u.u.u.u.u.u.u.u.u.u.u.u.u.u.u.u.u.u.u.u.u.u.u.u.u.u.u.u.u.u.<.r ",
"y <.u.u.u.u.u.u.u.u.u.u.u.u.u.u.u.u.u.u.u.u.u.u.u.u.u.u.u.u.u.u.u.u.u.u.u.u.<.r ",
"y <.u.u.u.u.u.u.u.u.u.u.u.u.u.u.u.u.u.u.u.u.u.u.u.u.u.u.u.u.u.u.u.u.u.u.u.u.<.q ",
"r <.u.u.u.u.u.u.u.u.u.u.u.u.u.u.u.u.u.u.u.u.u.u.u.u.u.u.u.7.' 5.u.u.u.u.u.u.<.r ",
"y <.u.u.u.u.u.u.u.u.u.u.u.u.u.u.u.u.u.u.u.u.u.u.u.u.u.u.u.Q * ..u.u.u.u.u.u.<.r ",
"y <.u.u.u.u.u.u.u.u.u.u.u.u.u.u.u.u.u.u.u.u.u.u.u.u.u.u.<.r c e.u.u.u.u.u.u.<.q ",
"y <.u.u.u.u.u.u.u.u.u.u.u.u.u.u.u.u.u.u.u.u.u.u.u.u.u.u.W * | u.u.u.u.u.u.u.<.r ",
"r <.u.u.u.u.u.u.u.u.u.u.u.u.u.u.u.u.u.u.u.u.u.u.u.u.u.5.q n e.u.u.u.u.u.u.u.<.q ",
"y <.u.u.u.u.u.u.u.u.u.u.u.u.u.u.u.u.u.u.u.u.u.u.u.u.u.E * | u.u.u.u.u.u.u.u.<.r ",
"y <.u.u.u.u.u.u.u.u.u.u.u.u.u.u.u.u.u.u.u.u.u.u.u.u.<.q n u.u.u.u.u.u.u.u.u.<.r ",
"r <.u.u.u.u.u.u.u.u.u.u.u.u.u.u.u.u.u.u.u.u.u.u.u.u.T * | u.u.u.u.u.u.u.u.u.<.q ",
"y <.u.u.u.u.u.u.u.u.u.u.u.u.u.u.u.u.u.u.u.u.u.u.u.>.4 M u.u.u.u.u.u.u.u.u.u.<.r ",
"y <.u.u.u.u.u.u.u.u.u.u.u.u.u.u.e.8.5.5.5.5.8.e.u.T * ..u.u.u.u.u.u.u.u.u.u.<.r ",
"y <.u.u.u.u.u.u.u.u.u.u.<...) U B c j j j j c B K ; g <.e.u.u.u.u.u.u.u.u.u.<.q ",
"y <.u.u.u.u.u.u.u.5.} K g y y a c Z K R R K A n < O 8 g K } 5.u.u.u.u.u.u.u.<.r ",
"y <.u.u.u.u.u.<.) k r p B ) ..<.8.u.u.u.u.u.u.$.< z ) B p r z ~ <.u.u.u.u.u.<.q ",
"r <.u.u.u.e.] k 8 k ~ *.e.u.u.u.u.u.u.u.u.u.u.K - @.u.e.*.! z q k ] e.u.u.u.<.r ",
"y <.u.u.<.K q g _ 5.u.u.u.u.u.u.u.u.u.u.u.u.-.< Z u.u.u.u.u.5._ g r K <.u.u.<.r ",
"y <.u.*.M q K >.u.u.u.u.u.u.u.u.u.u.u.u.u.u.D - @.u.u.u.u.u.u.u.>.K q n -.u.>.r ",
"y <.-.c r ) 8.u.u.u.u.u.u.u.u.u.u.u.u.u.u.*.< A u.u.u.u.u.u.u.u.u.8.) y c -.<.r ",
"y @.B r ' e.u.u.u.u.u.u.u.u.u.u.u.u.u.u.u.G ; $.u.u.u.u.u.u.u.u.u.u.e.' y B @.r ",
"r A q ~ e.u.u.u.u.u.u.u.u.u.u.u.u.u.u.u.*.; D u.u.u.u.u.u.u.u.u.u.u.u.e.~ 8 A q ",
"; 8 A 8.u.u.u.u.u.u.u.u.u.u.u.u.u.u.u.u.Z ; *.u.u.u.u.u.u.u.u.u.u.u.u.u.8.D 8 * ",
"@ y $.u.u.u.u.u.u.u.u.u.u.u.u.u.u.u.u.@.- K u.u.u.u.u.u.u.u.u.u.u.u.u.u.u.@.y X ",
"O G e.u.u.u.u.u.u.u.u.u.u.u.u.u.u.u.u.{ g *.u.u.u.u.u.u.u.u.u.u.u.u.u.u.u.e.G X ",
"# ] u.u.u.u.u.u.u.u.u.u.u.u.u.u.u.u.u.u.8.u.u.u.u.u.u.u.u.u.u.u.u.u.u.u.u.u.] # ",
"# E @.$.@...@...@.@.@.@.@.$.@.$.@.@.@.@.$.@.@.$.@.$.@.$.@.$.@.@.@.@.@.$.@.@.E # ",
"  O - < ; ; ; ; ; < ; < ; < ; < ; < < ; < < ; < ; < ; < ; ; < ; < ; < ; < - O   "
};
