/* XPM */
static char *state__[] = {
/* columns rows colors chars-per-pixel */
"96 23 192 2",
"   c #3BF1127A1594",
".  c #3D1F1A0B1637",
"X  c #3F48142A1F85",
"o  c #3F9820AC1375",
"O  c #27C128A33D3F",
"+  c #4086239E1345",
"@  c #451E14CA2125",
"#  c #492233462EF6",
"$  c #7F6A65DA29B1",
"%  c #30551DA2531B",
"&  c #3A6129125A40",
"*  c #29B832B25936",
"=  c #3290352E5C27",
"-  c #17C83B2D6B38",
";  c #15E1473F6BCD",
":  c #197C47FD70A5",
">  c #19F155C276C1",
",  c #1ADE5EB77AEB",
"<  c #1B9861217B72",
"1  c #7A815C9E455E",
"2  c #774F5CCF48C2",
"3  c #7FE05E564824",
"4  c #76B572B46BF8",
"5  c #61F06A6772B5",
"6  c #7A0A6CB17CB3",
"7  c #7FF770EA72E4",
"8  c #796D72C978DD",
"9  c #766C7AE77C8D",
"0  c #8A8E38702DCC",
"q  c #93E7531C2F2C",
"w  c #93AB67C02F1A",
"e  c #9359770E497A",
"r  c #94CE73195D0F",
"t  c #8D467FAE6B11",
"y  c #91D976127878",
"u  c #A4B680E73651",
"i  c #A990894642AF",
"p  c #ACB38DAC4B96",
"a  c #8C1E86CB7718",
"s  c #8C4583787DC6",
"d  c #9E6A8C437DD9",
"f  c #AD618F476CB7",
"g  c #B6239BDD6F20",
"h  c #A3478F837365",
"j  c #A47486E57AA6",
"k  c #B6D08B7179D5",
"l  c #B47B938771C5",
"z  c #BEC197D774BE",
"x  c #C362A2AF7BE4",
"c  c #CFD7BBC97F68",
"v  c #2BC96C4A8386",
"b  c #779C6C6C8C48",
"n  c #7AB76E398BBC",
"m  c #6C79761386C1",
"M  c #6AB674D68EF4",
"N  c #7C4F76D484FF",
"B  c #788B794683BA",
"V  c #7D9973AF9022",
"C  c #79517F6990A8",
"Z  c #76BF77119D24",
"A  c #83B26F778154",
"S  c #84546DA588C6",
"D  c #836C796681E0",
"F  c #6E6B86ED97B2",
"G  c #79FB84DC908B",
"H  c #7BBC8AC499D2",
"J  c #57CD8A10BB87",
"K  c #593A9233BED5",
"L  c #65838B79A369",
"P  c #7C358387A6C2",
"I  c #694C9235AEA7",
"U  c #6E558032BFF4",
"Y  c #7F4A9E47B086",
"T  c #79219F9BBA4E",
"R  c #58D895B9C085",
"E  c #6F7280B9C057",
"W  c #708A815DC0C1",
"Q  c #5F9DA8CDC9BB",
"!  c #632AAC97CC23",
"~  c #867E867C867B",
"^  c #88948E0E9165",
"/  c #827687569CC8",
"(  c #807D8A5898E2",
")  c #96B686EB9F51",
"_  c #B5CC9259801A",
"`  c #A762916891D9",
"'  c #B90BA05B8EB0",
"]  c #ADC2A2B79142",
"[  c #9DCE8B60A28A",
"{  c #86D79823B77D",
"}  c #89299E13B355",
"|  c #9FF6A727AA64",
" . c #A329A311A311",
".. c #A808A126ADE2",
"X. c #A511A905AD5D",
"o. c #A92AA989AB79",
"O. c #BD19B372AD34",
"+. c #AF40AD33B794",
"@. c #AA68B1D7B944",
"#. c #BF36BEC4BF11",
"$. c #C60E9EF58E97",
"%. c #C06AA41E87D1",
"&. c #CF0DA6BD8AC6",
"*. c #CC5EAD028C31",
"=. c #D2DFB0388B7E",
"-. c #D24FB33E92DD",
";. c #D82EB8A19987",
":. c #C94ABD24AA1A",
">. c #D308B694A40F",
",. c #DB3CBC77A2B3",
"<. c #C80DBEC6B794",
"1. c #E577BD4FA57C",
"2. c #E84EBF1DA92B",
"3. c #D31FC35D9D9E",
"4. c #DD94C2DFA41A",
"5. c #DC90C704B947",
"6. c #D8B3CD30BEA3",
"7. c #EB2FC485AC6E",
"8. c #EBA5C8F6ADF8",
"9. c #ED8FD352B007",
"0. c #E43BCD3AB49A",
"q. c #E920D047B702",
"w. c #E5C8CC68BA36",
"e. c #E64FD21EB3A7",
"r. c #EA06D52EBE53",
"t. c #87EB9DA7CB4A",
"y. c #82A1A41CC648",
"u. c #8632A84EC49D",
"i. c #882FA506CB14",
"p. c #8BA4AA8DCB22",
"a. c #8EB1B5B1C9B7",
"s. c #8854BA98CD6D",
"d. c #920DA9FAD0F3",
"f. c #901CB824D106",
"g. c #9400BB33D3C6",
"h. c #99AFB96BD5CC",
"j. c #9966B429DA3D",
"k. c #9914BE7EDFB5",
"l. c #AC43BC84CFB8",
"z. c #945DC3E3DD29",
"x. c #B652C1E5CEC9",
"c. c #9DB9C638E16E",
"v. c #A9FAC37EE858",
"b. c #B133C60BE3CC",
"n. c #B04ACC66E91C",
"m. c #B5BBD409EBEE",
"M. c #BC0AD410ED8E",
"N. c #D3BEC6E4C3A9",
"B. c #C3F5CC4FD506",
"V. c #C5A6D8E6D9FF",
"C. c #E304D2ADC334",
"Z. c #E561D896CAC5",
"A. c #F293DF81C2CA",
"S. c #DF33E08FDAEE",
"D. c #F485E457C481",
"F. c #F63AE74BCE17",
"G. c #F8C0E916CFBB",
"H. c #F3C3E326D69E",
"J. c #F6B6E9F0D774",
"K. c #FB53EE49D22D",
"L. c #F446EABADF75",
"P. c #FA9DEDC4DA3E",
"I. c #FCD9F1DCDC56",
"U. c #C4CADB1CEE80",
"Y. c #CA5CE015EC72",
"T. c #C466DDE5F321",
"R. c #C737E127F569",
"E. c #CB4DE2FCF43F",
"W. c #D687E5DBF33E",
"Q. c #D3B0EA96F73D",
"!. c #DAC3ED85F664",
"~. c #D694ED41FA45",
"^. c #DA0EEF18FA10",
"/. c #DE33F399FD3C",
"(. c #EBD3E9B1E812",
"). c #E7FAE83DE8A6",
"_. c #E51CEB89ED72",
"`. c #EBDDEC89EC02",
"'. c #F298EB56E25E",
"]. c #F653F0F7E254",
"[. c #FD6EF516E5BF",
"{. c #FCD0F616EABE",
"}. c #FFD8FB01EC45",
"|. c #EC28F1ACF73B",
" X c #E1B2F710FEF4",
".X c #ECA1F6B7FCFC",
"XX c #ECD9FA19FF14",
"oX c #F17FF474F4DC",
"OX c #FFB6FE4BF4A8",
"+X c #F505F658F929",
"@X c #F6F4FE92FF78",
"#X c #FFEFFFF9FFEC",
/* pixels */
"#X#X#X#X#X#X#X#X#X#X#X#X#X#X#X#X#X#X#X#X#X#X#X#X#X#X#X#X#X#X#X#X#X#X#X#X#X#X#X#X#X#X#X#X#X#X#X#X#X#X#X#X#X#X#X#X#X#X#X#X#X#X#X#X#X#X#X#X#X#X#X#X#X#X#X#X#X#X#X#X#X#X#X#X#X#X#X#X#X#X#X#X#X#X#X#X",
"#X#X#X#X#X#X`.@X#X#X#X#X#X#X#X#X#X#X#X#X].+X#X#X#X#X#X#X#X#X#X#X#X#X#X#X#X#X#X#X#X#X#X#X#X#X#X#X#X#X#X#X#X+X|.#X#X#X#X#X#X#X#X#X#X#X#X#X_.@X#X#X#X#X#X#X#X#X#X#X#X#X#X#X#X#X#X#X#X#X#X#X#X#X#X#X",
"#X#X#X#X#XOX..m.#X#X#X#X#X#X#X#X#X#X#X#Xc a.#X#X#X#X#X#X#X#X#X#X#X#X#X#X#X#X#X#X#X#X#X#X#X#X#X#X#X#X#X#X#XC.t.#X#X#X#X#X#X#X#X#X#X#X#X[.( Y.#X#X#X#X#X#X#X#X#X#X#X#X#X#X#X#X#X#X#X#X#X#X#X#X#X#X",
"#X#X#X#X#XOX) v.#X#X#X#XL.O.o.x..X#X#X#Xe.M /.#X#X#X#X#X#X#X#X#X#X#X#X#X#X#X#X#X#X#X#X#X#X#X#X#X#X#X#X#X#X5.E @X#X#X#X#X#X].V.@X#X#X#XOXk p.#X#X#X#X#X#X#X#X#X#X#X#X#X#X#X#X#X#X#X#X#X#X#X#X#X#X",
"#X#X#X#X#XOX) v.#X#X#Xw.y @.x.] H ^.#X#X{.y b.#X#X#X#X#X#X#X#X#X#X#X#X#X#X#X#X#X#X#X#X#X#X#X#X#X#X#X#X#X#X5.E @X#X#X{.N.O.1 v /.#X#X#X#Xe.B  X#X#X#X#X#X#X#X#X#X#X#X#X#X#X#X#X#X#X#X#X#X#X#X#X#X",
"#X#X#X#X#XOX) v.#X#XP.3 i.@X#X}.r I @X#X#X=.Y @X#X#X#X#X#X#X#X#X#X#X#X#X#X#X#X#X#X#X#X#X#X#X#X#X#X#X#X#X#X5.E #X#X#XH.` | $ < /.#X#X#X#X[.s n.#X#X#X#X#X#X#X#X#X#X#X#X#X#X#X#X#X#X#X#X#X#X#X#X#X",
"#X#X#X#X#XOX) v.#X#X;.& Y.#X#X#X*.= E.#X#XF.n !.#X#X#X#X#X#X#X#X#X#X#X#X#X#X#X#X#X#X#X#X#X#X#X#X#X#X#X#X#X5.W @X#X#X#X#X#Xu <  X#X#X#X#X#X&.} @X#X#X#X#X#X#X#X#X#X#X#X#X#X#X#X#X#X#X#X#X#X#X#X#X",
"#X#X#X#X#XOX) v.#X#Xp ; /.#X#X#X7.@ z.#X#XOXf h.#X#X#X#X#X#X#X#X#X#X#X#X#X#X#X#X#X#X#X#X#X#X#X#X#X#X#X#X#X5.W @X#X#X#X#XOXu < /.#X#X#X#X#XD.m /.#X#X#X#X#X#X#X#X#X#X#X#X#X#X#X#X#X#X#X#X#X#X#X#X",
"#X#X#X#X#XOX) v.#X}.q > /.#X#X#X8.. ! #X#X#X4.F XX#X#X#X#X#X#X#X#X#X#X#X#X#X#X#X#X#X#X#X#X#X#X#X#X#X#X#X#X5.W @X#X#X#X#XOXu < oX#X#X#X#X#XOXj j.#X#X#X#X#X#X#X#X#X#X#X#X#X#X#X#X#X#X#X#X#X#X#X#X",
"#X#X#X#X#XOX) v.#X}.0 ,  X#X#X#X9.o K #X#X#XI.6 U.#X#X#X#X#X#X#X#X#X#X#X#X#X#X#X#X#X#X#X#X#X#X#X#X#X#X#X#X5.W @X#X#X#X#X#Xe <  X#X#X#X#X#X#X;.( XX#X#X#X#X#X#X#X#X#X#X#X#X#X#X#X#X#X#X#X#X#X#X#X",
"#X#X#X#X#X}.) v.#X}.0 ,  X#X#X#X9.o J #X#X#X#Xx u.#X#X#X#X#X#X#X#X#X#X#X#X#X#X#X#X#X#X#X#X#X#X#X#X#X#X#X#X5.E @X#X#X#X#X}.u < /.#X#X#X#X#X#XP.N T.#X#X#X#X#X#X#X#X#X#X#X#X#X#X#X#X#X#X#X#X#X#X#X",
"#X#X#X#X#XOX) v.#X}.0 ,  X#X#X#X9.o K @X#X#X#Xr.n  X#X#X#X#X#X#X#X:.~ ~ ~ ~ ~ ~ ~ ~ ~ ~ ^ Y.#X#X#X#X#X#X#X5.E @X#X#X#X#XOXu <  X#X#X#X#X#X#X#Xz a.#X#X#X#X#X#X#X#X#X#X#X#X#X#X#X#X#X#X#X#X#X#X#X",
"#X#X#X#X#XOX) v.#XOXq > /.#X#X#X7.  Q #X#X#X#Xq.S XX#X#X#X#X#X#XOX6. . . . . . . . . . .X.W.#X#X#X#X#X#X#X5.W #X#X#X#X#XOXu <  X#X#X#X#X#X#X#Xg s.#X#X#X#X#X#X#X#X#X#X#X#X#X#X#X#X#X#X#X#X#X#X#X",
"#X#X#X#X#XOX) v.#X#Xi - ~.#X#X#X1.X z.#X#X#X#X_ i.#X#X#X#X#X#X#X#X#X#X#X#X#X#X#X#X#X#X#X#X#X#X#X#X#X#X#X#X5.W @X#X#X#X#XOXu < /.#X#X#X#X#X#XF.7 E.#X#X#X#X#X#X#X#X#X#X#X#X#X#X#X#X#X#X#X#X#X#X#X",
"#X#X#X#X#XOX) v.#X#X-.% T.#X#X#X*.* E.#X#X#XK.9 T.#X#X#X#X#X#X#X#X#X#X#X#X#X#X#X#X#X#X#X#X#X#X#X#X#X#X#X#X5.U @X#X#X#X#X#Xu <  X#X#X#X#X#X#X>.P @X#X#X#X#X#X#X#X#X#X#X#X#X#X#X#X#X#X#X#X#X#X#X#X",
"#X#X#X#X#XOX) v.#X#X].q ! #X#X}.e L @X#X#X#X>./ @X#X#X#X#X#X#X#X#X#X#X#X#X#X#X#X#X#X#X#X#X#X#X#X#X#X#X#X#X5.U @X#X#X#X#X{.w ; Q.#X#X#X#X#X}.h c.#X#X#X#X#X#X#X#X#X#X#X#X#X#X#X#X#X#X#X#X#X#X#X#X",
"#X#X#X#X#XOX) v.#X#X#Xe.6 l.S._ H ^.#X#X#XOXh c.#X#X#X#X#X#X#X#X#X#X#X#X#X#X#X#X#X#X#X#X#X#X#X#X#X#X#X#X#X5.W @X#X#XJ.d 4 # O 5 G U.#X#X#XA.b ^.#X#X#X#X#X#X#X#X#X#X#X#X#X#X#X#X#X#X#X#X#X#X#X#X",
"#X#X#X#X#XOX) v.#X#X#X#X'.<.o.B..X#X#X#X#Xr.8 ^.#X#X#X#X#X#X#X#X#X#X#X#X#X#X#X#X#X#X#X#X#X#X#X#X#X#X#X#X#X5.W @X#X#X#X(.).(.`.)._.+X#X#X#X' T #X#X#X#X#X#X#X#X#X#X#X#X#X#X#X#X#X#X#X#X#X#X#X#X#X",
"#X#X#X#X#XOX) v.#X#X#X#X#X#X#X#X#X#X#X#X#X$.{ #X#X#X#X#X#X#X#X#X#X#X#X#X#X#X#X#X#X#X#X#X#X#X#X#X#X#X#X#X#X5.E @X#X#X#X#X#X#X#X#X#X#X#X#XI.a m.#X#X#X#X#X#X#X#X#X#X#X#X#X#X#X#X#X#X#X#X#X#X#X#X#X",
"#X#X#X#X#XOX) v.#X#X#X#X#X#X#X#X#X#X#X#X[.a n.#X#X#X#X#X#X#X#X#X#X#X#X#X#X#X#X#X#X#X#X#X#X#X#X#X#X#X#X#X#X5.E @X#X#X#X#X#X#X#X#X#X#X#X#X0.Z oX#X#X#X#X#X#X#X#X#X#X#X#X#X#X#X#X#X#X#X#X#X#X#X#X#X",
"#X#X#X#X#XOX) v.#X#X#X#X#X#X#X#X#X#X#X#X0.V XX#X#X#X#X#X#X#X#X#X#X#X#X#X#X#X#X#X#X#X#X#X#X#X#X#X#X#X#X#X#X5.Z @X#X#X#X#X#X#X#X#X#X#X#XOXl f.#X#X#X#X#X#X#X#X#X#X#X#X#X#X#X#X#X#X#X#X#X#X#X#X#X#X",
"#X#X#X#X#XOX+.M.#X#X#X#X#X#X#X#X#X#X#X#X3.g.#X#X#X#X#X#X#X#X#X#X#X#X#X#X#X#X#X#X#X#X#X#X#X#X#X#X#X#X#X#X#XZ.d.@X#X#X#X#X#X#X#X#X#X#X#X[.[ W.#X#X#X#X#X#X#X#X#X#X#X#X#X#X#X#X#X#X#X#X#X#X#X#X#X#X",
"#X#X#X#X#X#XOX@X#X#X#X#X#X#X#X#X#X#X#X#X+X@X#X#X#X#X#X#X#X#X#X#X#X#X#X#X#X#X#X#X#X#X#X#X#X#X#X#X#X#X#X#X#X#X@X#X#X#X#X#X#X#X#X#X#X#X#X#X+X#X#X#X#X#X#X#X#X#X#X#X#X#X#X#X#X#X#X#X#X#X#X#X#X#X#X#X"
};
