/* XPM */
static char * state_YMINUS_xpm[] = {
"80 23 218 2",
"  	c None",
". 	c #FFFFFF",
"+ 	c #F1F1EC",
"@ 	c #F6FEFF",
"# 	c #F6F0E2",
"$ 	c #F4F6F8",
"% 	c #FBF5F3",
"& 	c #EDF2F5",
"* 	c #EDE2F1",
"= 	c #FFF5E4",
"- 	c #A0AD88",
"; 	c #D5ECFA",
"> 	c #CFBB80",
", 	c #90B6C8",
"' 	c #E8D5A8",
") 	c #91BBB9",
"! 	c #F5DFCE",
"~ 	c #9B738F",
"{ 	c #DEF3FD",
"] 	c #FEF3DC",
"^ 	c #879F70",
"/ 	c #C3E7F7",
"( 	c #F4ECDE",
"_ 	c #BDB0AD",
": 	c #AAA6A5",
"< 	c #B6C1CE",
"[ 	c #ECF7FC",
"} 	c #E4D2B2",
"| 	c #6B758F",
"1 	c #E3F6FE",
"2 	c #DED3C3",
"3 	c #BDCBD3",
"4 	c #E2CE96",
"5 	c #71AEAA",
"6 	c #E9E9E8",
"7 	c #D3CCE5",
"8 	c #FFF9E7",
"9 	c #91836A",
"0 	c #B5C4D8",
"a 	c #E5CCBA",
"b 	c #837981",
"c 	c #AAB1B9",
"d 	c #BFBEBE",
"e 	c #AEA48F",
"f 	c #7B8B9A",
"g 	c #D9EFF9",
"h 	c #927679",
"i 	c #ACC6E5",
"j 	c #704331",
"k 	c #326888",
"l 	c #ECFAFF",
"m 	c #DEC0AD",
"n 	c #B8AB99",
"o 	c #5E4B43",
"p 	c #5E66AF",
"q 	c #D2B392",
"r 	c #6C93AE",
"s 	c #FAEEDB",
"t 	c #7F5E48",
"u 	c #88ACCB",
"v 	c #FFFAEB",
"w 	c #94725F",
"x 	c #CCAC8C",
"y 	c #899EB3",
"z 	c #BCA2A2",
"A 	c #E6D8B9",
"B 	c #969693",
"C 	c #A6A6A6",
"D 	c #493C39",
"E 	c #4E60AA",
"F 	c #F6EAD3",
"G 	c #836D7E",
"H 	c #D4EAF8",
"I 	c #D8B899",
"J 	c #3A285A",
"K 	c #C4DDF2",
"L 	c #32345C",
"M 	c #CCE4F5",
"N 	c #F5E6CD",
"O 	c #7B6E8B",
"P 	c #4D5FA9",
"Q 	c #FEFBF4",
"R 	c #AC9A79",
"S 	c #90B7D8",
"T 	c #AC8C4B",
"U 	c #194770",
"V 	c #EAC4AB",
"W 	c #451421",
"X 	c #94C3DD",
"Y 	c #AC8E6D",
"Z 	c #93BBD3",
"` 	c #E6E6E8",
" .	c #787999",
"..	c #93522F",
"+.	c #1A5C7B",
"@.	c #EBC8AD",
"#.	c #3D1916",
"$.	c #61AACA",
"%.	c #DDC1A3",
"&.	c #6E8697",
"*.	c #9D9685",
"=.	c #8FA4B7",
"-.	c #89716E",
";.	c #BFD8EB",
">.	c #8A382D",
",.	c #EBDAAE",
"'.	c #3F2013",
").	c #5895C0",
"!.	c #C5DAEE",
"~.	c #C5B3AA",
"{.	c #C7DCE4",
"].	c #DBBC8A",
"^.	c #4D4B42",
"/.	c #C3A985",
"(.	c #7AA3C5",
"_.	c #EDD3AF",
":.	c #578ABB",
"<.	c #C3A27C",
"[.	c #84A8C4",
"}.	c #B2BACC",
"|.	c #AE8963",
"1.	c #38406B",
"2.	c #ECDBC3",
"3.	c #827284",
"4.	c #5A93BF",
"5.	c #EAD5BE",
"6.	c #D6B5AD",
"7.	c #8C8686",
"8.	c #868686",
"9.	c #868B8F",
"0.	c #B6D6E5",
"a.	c #E6EBEB",
"b.	c #6E4020",
"c.	c #5E8FB2",
"d.	c #8C8677",
"e.	c #ABC7E9",
"f.	c #195576",
"g.	c #3B1215",
"h.	c #E5CCB3",
"i.	c #846D89",
"j.	c #A6A9AD",
"k.	c #CDE0EC",
"l.	c #DFC599",
"m.	c #252644",
"n.	c #ABC9E4",
"o.	c #897D84",
"p.	c #A98942",
"q.	c #173B6B",
"r.	c #E5BDA5",
"s.	c #3E141F",
"t.	c #B8A08E",
"u.	c #87A4CB",
"v.	c #A37252",
"w.	c #3A5978",
"x.	c #E9D5B6",
"y.	c #6E7987",
"z.	c #301D52",
"A.	c #2A3259",
"B.	c #FBEED2",
"C.	c #767A7B",
"D.	c #59452F",
"E.	c #77A4C9",
"F.	c #B8AFC1",
"G.	c #E2EDF8",
"H.	c #C09775",
"I.	c #8CA9C5",
"J.	c #775D48",
"K.	c #937749",
"L.	c #658BA3",
"M.	c #D9BAA4",
"N.	c #83879D",
"O.	c #51204C",
"P.	c #BEDAF2",
"Q.	c #E6DEC0",
"R.	c #A4BEB6",
"S.	c #54402E",
"T.	c #425590",
"U.	c #7D7683",
"V.	c #796C7D",
"W.	c #ACBCCE",
"X.	c #E0E0DA",
"Y.	c #797F90",
"Z.	c #DCECF6",
"`.	c #A19077",
" +	c #99BEDF",
".+	c #F6E4D2",
"++	c #745966",
"@+	c #95A1A8",
"#+	c #8FA9B2",
"$+	c #CFEBF5",
"%+	c #86827B",
"&+	c #726B5D",
"*+	c #393122",
"=+	c #313940",
"-+	c #6B7377",
";+	c #7E8997",
">+	c #F3EBE3",
",+	c #C4BEB4",
"'+	c #A9A9AB",
")+	c #C3CCD5",
"!+	c #F3E2C3",
"~+	c #787279",
"{+	c #D8D8DB",
"]+	c #E8E8E7",
"^+	c #EBEBEC",
"/+	c #A68379",
"(+	c #9AB2D9",
"_+	c #C59E8E",
":+	c #8698B7",
"<+	c #6E7386",
"[+	c #B3D2EB",
"}+	c #869E6E",
"|+	c #7D738F",
"1+	c #AFCBE9",
"2+	c #ADB791",
"3+	c #D2C29D",
"4+	c #9FC3BE",
"5+	c #A49393",
". . . . . . . . . . . . . . . . . . . . . . . . . . . . . . . . . . . . . . . . . . . . . . . . . . . . . . . . . . . . . . . . . . . . . . . . . . . . . . . . ",
". . + @ . . . . . . . . . . . . # $ . . . . . . . . . . . . . . . . . . . . . . . . . . . . . . . . . . . . . . . . . % & . . . . . . . . . . . . % * . . . . . ",
". = - ; . . . . . . . . . . . . > , . . . . . . . . . . . . . . . . . . . . . . . . . . . . . . . . . . . . . . . . . ' ) . . . . . . . . . . . . ! ~ { . . . . ",
". ] ^ / . . . . ( _ : < [ . . . } | 1 . . . . . . . . . . . . . . . . . . . . . . . . . . . . . . . . 2 3 @ . . . . . 4 5 @ . . . . . 6 7 . . . . 8 9 0 . . . . ",
". ] ^ / . . . a b c d e f g . . = h i . . . . . . . . . . . . . . . . . . . . . . . . . . . . . . . = j k l . . . . . 4 5 . . . 6 m n o p @ . . . . q r @ . . . ",
". ] ^ / . . s t u . . v w r @ . . x y @ . . . . . . . . . . . . . . . . . . . . . . . . . . . . . . v z 0 . . . . . . 4 5 @ . . A B C D E @ . . . . F G H . . . ",
". ] ^ / . . I J K . . . x L M . . N O ; . . . . . . . . . . . . . . . . . . . . . . . . . . . . . . . . . . . . . . . 4 5 @ . . . . 8 o P @ . . . . Q R S . . . ",
". ] ^ / . . T U { . . . V W X . . Q Y Z . . . . . . . . . . . . . . . . . . . . . . . . . . . . . % ` @ . . . . . . . 4 5 @ . . . . = o P @ . . . . . m  .l . . ",
". ] ^ / . v ..+.1 . . . @.#.$.. . . %.&.[ . . . . . . . . . . . . . . . . . . . . . . . . . . . F _ *.=.$ . . . . . . 4 5 @ . . . . = o E @ . . . . . ] -.;.. . ",
". ] ^ / . v >.+.1 . . . ,.'.).. . . ] G !.. . . . . . . . . . . . . . . . . . . . . . . . . . Q ~.{.].^.; . . . . . . 4 5 @ . . . . = o E @ . . . . . . /.(.. . ",
". ] ^ / . 8 >.+.1 . . . _.'.:.. . . . <.[.. . . . . . . . . . . . . . . . . . . . . . . . . . N }.Q |.1.{ . . . . . . 4 5 @ . . . . = o E @ . . . . . . 2.3.{ . ",
". ] ^ / . v >.+.1 . . . _.'.4.. . . . 5.O 1 . . . . . . 6.7.8.8.8.8.8.8.8.8.8.8.9.0.. . . . . # a.s b.c.@ . . . . . . 4 5 . . . . . = o E @ . . . . . . v d.e.. ",
". ] ^ / . v ..f.{ . . . V g.$.. . . . h.i.[ . . . . . . a C C C C C C C C C C C j.k.. . . . . . . l.m.n.. . . . . . . 4 5 @ . . . . = o E @ . . . . . . 8 o.e.. ",
". ] ^ / . . p.q.; . . . r.s.S . . . Q t.u.. . . . . . . . . . . . . . . . . . . . . . . . . . . Q v.w.1 % @ . . . . . 4 5 @ . . . . = o E @ . . . . . . x.y.{ . ",
". ] ^ / . . q z.K . . . x A.K . . . B.C./ . . . . . . . . . . . . . . . . . . . . . . . . . . . N D.E.Q F.G.. . . . . 4 5 @ . . . . 8 o E @ . . . . . . H.I.. . ",
". ] ^ / . . s J.(.. . v K.L.. . . . M.N.$ . . . . . . . . . . . . . . . . . . . . . . . . . . . V O.P.Q.R.$ . . . . . 4 5 . . . . . N S.T.[ . . . . . ] U.K . . ",
". ] ^ / . . . } V.W.X.t.Y.Z.. . . Q `. +. . . . . . . . . . . . . . . . . . . . . . . . . . . . .+++@+#+$+. . . . . . 4 5 @ . . 2.%+&+*+=+-+N.Z.. . . I ;+l . . ",
". ] ^ / . . . . >+,+'+)+[ . . . . !+~+Z.. . . . . . . . . . . . . . . . . . . . . . . . . . . . . >+{+& . . . . . . . 4 5 @ . . % ]+6 ^+6 6 ^+@ . . Q /+(+. . . ",
". ] ^ / . . . . . . . . . . . . . _+:+. . . . . . . . . . . . . . . . . . . . . . . . . . . . . . . . . . . . . . . . 4 5 @ . . . . . . . . . . . . !+<+; . . . ",
". ] ^ / . . . . . . . . . . . . = d.[+. . . . . . . . . . . . . . . . . . . . . . . . . . . . . . . . . . . . . . . . 4 5 @ . . . . . . . . . . . . x =.. . . . ",
". ] }+/ . . . . . . . . . . . . h.|+1 . . . . . . . . . . . . . . . . . . . . . . . . . . . . . . . . . . . . . . . . 4 5 @ . . . . . . . . . . . = h 1+. . . . ",
". = 2+; . . . . . . . . . . . . 3+Z . . . . . . . . . . . . . . . . . . . . . . . . . . . . . . . . . . . . . . . . . ,.4+. . . . . . . . . . . . .+5+1 . . . . ",
". . Q . . . . . . . . . . . . . % @ . . . . . . . . . . . . . . . . . . . . . . . . . . . . . . . . . . . . . . . . . . @ . . . . . . . . . . . . . $ . . . . . "};
