/* XPM */
static char *state__[] = {
/* columns rows colors chars-per-pixel */
"96 23 181 2",
"   c #3D0A17B814EF",
".  c #3E3911F817AB",
"X  c #3ED421CF14B9",
"o  c #331F1FBD3EC7",
"O  c #4017155D176A",
"+  c #4092230412F6",
"@  c #40E0236D12D9",
"#  c #40051AB93329",
"$  c #1F6D35FD6B59",
"%  c #1FE023CC6028",
"&  c #555D37DC4174",
"*  c #5117341447E1",
"=  c #18AD49A6700C",
"-  c #19D9577276A2",
";  c #19DD594B7994",
":  c #1A4D5CEE7BEE",
">  c #1A265DB77CA3",
",  c #1A3F5EBD7D25",
"<  c #38E153237897",
"1  c #6EA46469604F",
"2  c #789D632F6266",
"3  c #7E636F267910",
"4  c #89B638702D50",
"5  c #8D593B092E7F",
"6  c #8E95417C2ED2",
"7  c #9CA26CEA32E5",
"8  c #A026760A345C",
"9  c #87CE78086A84",
"0  c #9AF477716C6B",
"q  c #8B5867C77A13",
"w  c #84C478FC78F9",
"e  c #88A1797B7986",
"r  c #AF8590F55E3A",
"t  c #86FE9F6870A7",
"y  c #88589EFE7013",
"u  c #A99086446B4F",
"i  c #BAAF9DA46A5A",
"p  c #AEBD86D072F3",
"a  c #BA5393F37FBE",
"s  c #BD0E9F0D7953",
"d  c #914DA3C073FC",
"f  c #BEFCA26A7159",
"g  c #BC57A26C7DD3",
"h  c #3E10643A8267",
"j  c #670A6D9E8BED",
"k  c #6F4875748872",
"l  c #6C3D7EB89B84",
"z  c #7BAA82E888C9",
"x  c #78AB84B19F25",
"c  c #57728C0CBC2E",
"v  c #57DA8D4ABCB5",
"b  c #6B0F87DDA5CC",
"n  c #717882BDA67A",
"m  c #706887FAA5BC",
"M  c #7BD795F3ADA7",
"N  c #7AC187A2B2BF",
"B  c #773A9357BAE6",
"V  c #5AF79D0AC3F6",
"C  c #5BD6A054C535",
"Z  c #71CFB5BED1F7",
"A  c #7596B828D394",
"S  c #8D56869D885C",
"D  c #88F5882E88AE",
"F  c #88B68DC88EC2",
"G  c #9C848A958223",
"H  c #B6EBA04E8CAB",
"J  c #B548A10398D1",
"K  c #9FF0A0C3A1EA",
"L  c #A4C4A336A403",
"P  c #A5AFA39AA638",
"I  c #C858AF658B3A",
"U  c #CEADAD52934F",
"Y  c #CFE5BA19956C",
"T  c #D7FAB455993F",
"R  c #DDB6B8EE9A4A",
"E  c #C8E6BABEB235",
"W  c #E1F5BBF3A3B7",
"Q  c #D7AFC3199A7C",
"!  c #DBFECBBE9A5A",
"~  c #C26AC738AF74",
"^  c #DC6BC77AA691",
"/  c #DE4CC81DB263",
"(  c #E98AC11EAA7A",
")  c #EB3DC4EFACAF",
"_  c #EBE3C9E3ADB9",
"`  c #ECFAD0C5AF5F",
"'  c #E9D4CEC4B32A",
"]  c #EC47D110B37B",
"[  c #EDC3D441B082",
"{  c #EC3BD740B3B9",
"}  c #EDF2D4BBB0CE",
"|  c #8ADFA1BBC9C1",
" . c #9597AB76C2FC",
".. c #971FBC0FD420",
"X. c #A023BA77DA33",
"o. c #AB66C0A9CE2D",
"O. c #A12BC17AD779",
"+. c #AEB2CC63DD17",
"@. c #BB8ED5BFDD78",
"#. c #A07EC53AE163",
"$. c #AD9DCD87E5F1",
"%. c #AF00D0C9E825",
"&. c #B2E9D211E956",
"*. c #B761D617EC4C",
"=. c #B7A3D5A3ED4B",
"-. c #BFEAE177F311",
";. c #C470D00BDEBD",
":. c #EF9FD611C087",
">. c #F193DA48C39D",
",. c #F3A5DFCCC8F0",
"<. c #F240E383CBA6",
"1. c #F59AE3AEC8C9",
"2. c #ED76E6DCD6DC",
"3. c #E429E57AD963",
"4. c #F923EB6DD7C2",
"5. c #FB14EFA4D943",
"6. c #FE6DF34ADC83",
"7. c #FE68F3ECDDC3",
"8. c #FE88F368DC9D",
"9. c #C1ACDB75F2D9",
"0. c #D372E382EFD1",
"q. c #C3A2E85FF7EA",
"w. c #C492E867F7F9",
"e. c #CE12E58DF82A",
"r. c #C94FE98AF894",
"t. c #DAA1EDD4F246",
"y. c #D436EC47FAAF",
"u. c #D472E94BF95D",
"i. c #D5A3EED9FBA5",
"p. c #D9AEF1F9FC66",
"a. c #DEA4F57DFE0A",
"s. c #E65AE62FE64E",
"d. c #EE20E98CE7EF",
"f. c #F9C9EF25E505",
"g. c #FEE0F816E6EC",
"h. c #FE56F769E980",
"j. c #FEDDF825ECB2",
"k. c #FFFFFA5AE9A3",
"l. c #FFFFFC0EEBAC",
"z. c #FEB7FBA0EEFD",
"x. c #EEFFEF40F076",
"c. c #EBADEFEBF4FF",
"v. c #E060F24FFC1A",
"b. c #E21BF314FCB7",
"n. c #E275F467FEB7",
"m. c #E394F5A8FE0F",
"M. c #E080F699FEAF",
"N. c #E2ADF7B8FF5A",
"B. c #E34DF814FF8F",
"V. c #E6D2F731FDD4",
"C. c #E845F6C0FE35",
"Z. c #EBD4F6E4FC5B",
"A. c #F9D8F6C8F3C0",
"S. c #FF3FFA45F19F",
"D. c #FFFBFCE2F13C",
"F. c #FFFFFED3F391",
"G. c #FF94FC65F6AF",
"H. c #FFE9FD98F4B6",
"J. c #FFFFFF52F570",
"K. c #FFE2FDD9F7CB",
"L. c #F247F9D1FE7B",
"P. c #F0EFFB8AFF77",
"I. c #F1A3FC31FFC7",
"U. c #F82DFB82FE1E",
"Y. c #F66BFD29FFFF",
"T. c #F71DFE73FFFF",
"R. c #F6A4FEC1FFFF",
"E. c #FD67FD11F9AB",
"W. c #FFFFFF38F9B8",
"Q. c #FFFFFE67FAE9",
"!. c #FFFFFF76FA99",
"~. c #F9B7FF7AFFFF",
"^. c #FBE0FFFFFFFF",
"/. c #FFFFFFFFFCCC",
"(. c #FF8FFF14FE19",
"). c #FFFFFFFFFE25",
"_. c #FCE5FFFFFFFF",
"`. c #FDE2FFE5FFFF",
"'. c #FFFFFFFFFF00",
"]. c #FED9FFFFFFFF",
"[. c #FFFFFFFFFFFF",
/* pixels */
"[.[.[.[.[.[.[.[.[.[.[.[.[.[.[.[.[.[.[.[.Q.[.[.[.[.[.[.[.[.[.[.[.[.[.[.[.[.[.[.[.[.[.[.[.[.[.[.[.[.[.[.[.[.[.[.[.[.[.[.[.[.[.[.[.[.[.[.[.[.[.[.[.[.[.[.[.[.[.[.[.[.[.[.[.[.[.[.[.[.[.[.[.[.[.[.[.",
"[.[.[.[.[.j.~ b.[.[.[.[.[.[.[.[.[.[.[.[.! @.[.[.[.[.[.[.[.[.[.[.[.[.[.[.[.[.[.[.[.[.[.[.[.[.[.[.[.[.[.[.[.[.[.[.[.[.[.[.[.[.[.[.[.[.[.[.[.[.[.[.[.[.[.[.[.[.[.[.[.[.[.[.[.[.[.[.[.[.[.[.[.[.[.[.",
"[.[.[.[.[.8.y w.[.[.[.[.Q.d.s.c.H.[.[.[.Q b I.[.[.[.[.[.[.[.[.[.[.[.[.[.[.[.[.[.[.[.[.[.[.[.[.[.[.[.[.[.[.[.[.[.[.[.[.[.[.[.[.[.[.[.[.[.[.[.[.[.[.[.[.[.[.[.[.[.[.[.[.[.[.[.[.[.[.[.[.[.[.[.[.[.",
"[.[.[.[.[.8.t q.[.[.[.f.J S D F X.U.[.[.4.3 9.[.[.[.[.[.[.[.[.[.[.[.[.[.[.[.[.[.[.[.[.[.[.[.[.[.[.[.[.[.[.[.[.[.[.[.[.[.[.[.[.[.[.[.[.[.[.[.[.[.[.[.[.[.[.[.[.[.[.[.[.[.[.[.[.[.[.[.[.[.[.[.[.[.",
"[.[.[.[.[.8.t q.[.[.z.u m Z.[.<.2 ..^.[.H.a  .[.[.[.[.[.[.[.[.[.[.[.[.[.[.[.[.[.[.[.[.[.[.[.[.[.[.[.[.[.[.[.[.[.[.[.[.[.[.[.[.[.[.[.[.[.[.[.[.[.[.[.[.[.[.[.[.[.[.[.[.[.[.[.[.[.[.[.[.[.[.[.[.[.",
"[.[.[.[.[.8.t q.[.[.' * =.[.[.[.s < a.[.[.{ l C.[.[.[.[.[.[.[.[.[.[.[.[.[.[.[.[.[.[.[.[.[.[.[.[.[.[.[.[.[.[.[.[.[.[.[.[.[.[.[.[.[.[.[.[.[.[.[.[.[.[.[.[.[.[.[.[.[.[.[.[.[.[.[.[.[.[.[.[.[.[.[.[.",
"[.[.[.[.[.8.t q.[.[.i $ y.[.[.[.W # %.[.[.h.0 %.[.[.[.[.[.[.[.[.[.[.[.[.[.[.[.[.[.[.[.[.[.[.[.[.[.[.[.[.[.[.[.[.[.[.[.[.[.[.[.[.[.[.[.[.[.[.[.[.[.[.[.[.[.[.[.[.[.[.[.[.[.[.[.[.[.[.[.[.[.[.[.[.",
"[.[.[.[.[.8.t q.[.F.7 - a.[.[.[.) . A [.[.[.I M R.[.[.[.[.[.[.[.[.[.[.[.[.[.[.[.[.[.[.[.[.[.[.[.[.[.[.[.[.[.[.[.[.[.[.[.[.[.[.[.[.[.[.[.[.[.[.[.[.[.[.[.[.[.[.[.[.[.[.[.[.[.[.[.[.[.[.[.[.[.[.[.",
"[.[.[.[.[.8.t q.[.k.5 , N.[.[.[.` X C [.[.[.1.k u.[.[.[.[.[.[.[.[.[.[.[.[.[.[.[.[.[.[.[.[.[.[.[.[.[.[.[.[.[.[.[.[.[.[.[.[.[.[.[.[.[.[.[.[.[.[.[.[.[.[.[.[.[.[.[.[.[.[.[.[.[.[.[.[.[.[.[.[.[.[.[.",
"[.[.[.[.[.8.t q.[.k.4 , N.[.[.[.} X c ^.[.[.F.p X.[.[.[.[.[.[.[.[.[.[.[.[.[.[.[.[.[.[.[.[.[.[.[.[.[.[.[.[.[.[.[.[.[.[.[.[.[.[.[.[.[.[.[.[.[.[.[.[.[.[.[.[.[.[.[.[.[.[.[.[.[.[.[.[.[.[.[.[.[.[.[.",
"[.[.[.[.[.8.t q.[.k.4 , N.[.[.[.` X c ^.[.[.[.^ n I.[.[.[.[.[.[.[.[.[.[.[.[.[.[.[.[.[.[.[.[.[.[.[.[.[.[.[.[.[.[.[.[.[.[.[.[.[.[.[.[.[.[.[.[.[.[.[.[.[.[.[.[.[.[.[.[.[.[.[.[.[.[.[.[.[.[.[.[.[.[.",
"[.[.[.[.[.8.t q.[.k.6 ; N.[.[.[._   C [.[.[.[.>.q m.[.[.[.[.[.[.[.[.[.[.[.[.[.[.[.[.[.[.[.[.[.[.[.[.[.[.[.[.[.[.[.[.[.[.[.[.[.[.[.[.[.[.[.[.[.[.[.[.[.[.[.[.[.[.[.[.[.[.[.[.[.[.[.[.[.[.[.[.[.[.",
"[.[.[.[.[.8.t q.[.H.8 = p.[.[.[.( . A [.[.[.Q.U N R.[.[.[.[.[.[.[.[.[.[.[.[.[.[.[.[.[.[.[.[.[.[.[.[.[.[.[.[.[.[.[.[.[.[.[.[.[.[.[.[.[.[.[.[.[.[.[.[.[.[.[.[.[.[.[.[.[.[.[.[.[.[.[.[.[.[.[.[.[.[.",
"[.[.[.[.[.8.t q.[.[.f % e.[.[.[.T o *.[.[.[.g.e $.[.[.[.[.[.[.[.[.[.[.[.[.[.[.[.[.[.[.[.[.[.[.[.[.[.[.[.[.[.[.[.[.[.[.[.[.[.[.[.[.[.[.[.[.[.[.[.[.[.[.[.[.[.[.[.[.[.[.[.[.[.[.[.[.[.[.[.[.[.[.[.",
"[.[.[.[.[.8.t q.[.[.{ * #.[.[.[.r h V.[.[.[.] z m.[.[.[.[.[.[.[.[.[.[.[.[.[.[.[.[.[.[.[.[.[.[.[.[.[.[.[.[.[.[.[.[.[.[.[.[.[.[.[.[.[.[.[.[.[.[.[.[.[.[.[.[.[.[.[.[.[.[.[.[.[.[.[.[.[.[.[.[.[.[.[.",
"[.[.[.[.[.8.t q.[.[.H.g j 0.E./ 1 +.[.[.[.Q.H | [.[.[.[.[.[.[.[.[.[.[.[.[.[.[.[.[.[.[.[.[.[.[.[.[.[.[.[.[.[.[.[.[.[.[.[.[.[.[.[.[.[.[.[.[.[.[.[.[.[.[.[.[.[.[.[.[.[.[.[.[.[.[.[.[.[.[.[.[.[.[.[.",
"[.[.[.[.[.8.t q.[.[.[.S.E L K P ;.[.[.[.[.5.9 -.[.[.[.[.[.[.[.[.[.[.[.[.[.[.[.[.[.[.[.[.[.[.[.[.[.[.[.[.[.[.[.[.[.[.[.[.[.[.[.[.[.[.[.[.[.[.[.[.[.[.[.[.[.[.[.[.[.[.[.[.[.[.[.[.[.[.[.[.[.[.[.[.",
"[.[.[.[.[.8.t q.[.[.[.[.[.A.x.U.[.[.[.[.[.R x P.[.[.[.[.[.[.[.[.[.[.[.[.[.[.[.[.[.[.[.[.[.[.[.[.[.[.[.[.[.[.[.[.[.[.[.[.[.[.[.[.[.[.[.[.[.[.[.[.[.[.[.[.[.[.[.[.[.[.[.[.[.[.[.[.[.[.[.[.[.[.[.[.",
"[.[.[.[.[.8.t q.[.[.[.[.[.[.[.[.[.[.[.[.S.G ..[.[.[.[.[.[.[.[.[.[.[.[.[.[.[.[.[.[.[.[.[.[.[.[.[.[.[.[.[.[.[.[.[.[.[.[.[.[.[.[.[.[.[.[.[.[.[.[.[.[.[.[.[.[.[.[.[.[.[.[.[.[.[.[.[.[.[.[.[.[.[.[.[.",
"[.[.[.[.[.8.t q.[.[.[.[.[.[.[.[.[.[.[.[.<.w i.[.[.[.[.[.[.[.[.[.[.[.[.[.[.[.[.[.[.[.[.[.[.[.[.[.[.[.[.[.[.[.[.[.[.[.[.[.[.[.[.[.[.[.[.[.[.[.[.[.[.[.[.[.[.[.[.[.[.[.[.[.[.[.[.[.[.[.[.[.[.[.[.[.",
"[.[.[.[.[.8.d r.[.[.[.[.[.[.[.[.[.[.[.[.Y B ^.[.[.[.[.[.[.[.[.[.[.[.[.[.[.[.[.[.[.[.[.[.[.[.[.[.[.[.[.[.[.[.[.[.[.[.[.[.[.[.[.[.[.[.[.[.[.[.[.[.[.[.[.[.[.[.[.[.[.[.[.[.[.[.[.[.[.[.[.[.[.[.[.[.",
"[.[.[.[.[.G.3.L.[.[.[.[.[.[.[.[.[.[.[.[.2.t.[.[.[.[.[.[.[.[.[.[.[.[.[.[.[.[.[.[.[.[.[.[.[.[.[.[.[.[.[.[.[.[.[.[.[.[.[.[.[.[.[.[.[.[.[.[.[.[.[.[.[.[.[.[.[.[.[.[.[.[.[.[.[.[.[.[.[.[.[.[.[.[.[.[.",
"[.[.[.[.[.[.[.[.[.[.[.[.[.[.[.[.[.[.[.[.[.[.[.[.[.[.[.[.[.[.[.[.[.[.[.[.[.[.[.[.[.[.[.[.[.[.[.[.[.[.[.[.[.[.[.[.[.[.[.[.[.[.[.[.[.[.[.[.[.[.[.[.[.[.[.[.[.[.[.[.[.[.[.[.[.[.[.[.[.[.[.[.[.[.[.[."
};
