/* XPM */
static char * state_ZPLUS_xpm[] = {
"82 23 142 2",
"  	c None",
". 	c #FFFFFF",
"+ 	c #FFFEFA",
"@ 	c #C2C7AF",
"# 	c #E2F3FC",
"$ 	c #DBCB9A",
"% 	c #BBD5DD",
"& 	c #889E70",
"* 	c #C4E8F7",
"= 	c #EEE9E7",
"- 	c #E6E6E6",
"; 	c #EBEFF4",
"> 	c #FFFDF4",
", 	c #D7C39A",
"' 	c #6B87A5",
") 	c #F1FCFF",
"! 	c #869F70",
"~ 	c #C3E8F7",
"{ 	c #F9EFE5",
"] 	c #B5A198",
"^ 	c #8D8688",
"/ 	c #888888",
"( 	c #888D8E",
"_ 	c #A0BADA",
": 	c #F8FBFE",
"< 	c #F9EBD7",
"[ 	c #7E6F79",
"} 	c #C1DBF2",
"| 	c #FEFBEE",
"1 	c #A9866B",
"2 	c #7087A5",
"3 	c #EBF6FC",
"4 	c #F2E3CB",
"5 	c #786362",
"6 	c #97BCD4",
"7 	c #FBFFFF",
"8 	c #BA937F",
"9 	c #95ABC2",
"0 	c #E9CEB3",
"a 	c #513447",
"b 	c #B7D5ED",
"c 	c #BD9F79",
"d 	c #385378",
"e 	c #DEF5FE",
"f 	c #ECD7B3",
"g 	c #6C7E9B",
"h 	c #E8F6FE",
"i 	c #BA9D6A",
"j 	c #1F356B",
"k 	c #D4ECFA",
"l 	c #E1BBA3",
"m 	c #401A33",
"n 	c #AFD0E8",
"o 	c #FEF7E9",
"p 	c #9A776C",
"q 	c #FFFEF3",
"r 	c #9C6C32",
"s 	c #195776",
"t 	c #EBC4AC",
"u 	c #3E1117",
"v 	c #75B8D3",
"w 	c #C8AF8B",
"x 	c #7B95AD",
"y 	c #F6FEFF",
"z 	c #FFFAE9",
"A 	c #8D3B2E",
"B 	c #1A5E7D",
"C 	c #E2F7FF",
"D 	c #ECD0AF",
"E 	c #3E2114",
"F 	c #5BA0C5",
"G 	c #F5E3C8",
"H 	c #6F7588",
"I 	c #D4E9F9",
"J 	c #89382D",
"K 	c #EDD4B0",
"L 	c #578CBC",
"M 	c #AE8672",
"N 	c #DCC7A6",
"O 	c #7182A6",
"P 	c #8E412E",
"Q 	c #195979",
"R 	c #EBC9AD",
"S 	c #3D1714",
"T 	c #F1DAC3",
"U 	c #8B677A",
"V 	c #E3F5FE",
"W 	c #A07634",
"X 	c #184970",
"Y 	c #D9F1FC",
"Z 	c #E9C1AA",
"` 	c #CEAD93",
" .	c #7A87B2",
"..	c #BEA271",
"+.	c #1F2360",
"@.	c #CEE5F8",
"#.	c #D7B499",
"$.	c #331F3E",
"%.	c #B7D6EC",
"&.	c #FEF8E6",
"*.	c #887979",
"=.	c #ADCDE5",
"-.	c #A0C5E1",
";.	c #AF905E",
">.	c #3E6482",
",.	c #E6F7FD",
"'.	c #ECD1B3",
").	c #7B8288",
"!.	c #BCA27D",
"~.	c #676D8B",
"{.	c #D3E3EF",
"].	c #FDFDF9",
"^.	c #DEC8B2",
"/.	c #6E6460",
"(.	c #AECCDD",
"_.	c #B6A08C",
":.	c #8AA1C9",
"<.	c #FFFAF1",
"[.	c #C8BAB2",
"}.	c #A4A3A4",
"|.	c #9FA0A1",
"1.	c #A5A3A6",
"2.	c #C4D0DE",
"3.	c #FBEFD9",
"4.	c #87786A",
"5.	c #BFE1F3",
"6.	c #F9F6F3",
"7.	c #EEEFF0",
"8.	c #DDB89A",
"9.	c #78849F",
"0.	c #F0FBFF",
"a.	c #9C8A82",
"b.	c #847878",
"c.	c #D5EEFB",
"d.	c #91A373",
"e.	c #C9E9F8",
"f.	c #CFBA95",
"g.	c #7793BA",
"h.	c #E4E5D9",
"i.	c #F2F9FE",
"j.	c #EDE6D6",
"k.	c #DAEDF2",
". . . . . . . . . . . . . . . . . . . . . . . . . . . . . . . . . . . . . . . . . . . . + . . . . . . . . . . . . . . . . . . . . . . . . . . . . . . . . . . . . . ",
". . . . . . . . . . . . . . . . . . . . . . . . . . . . . . @ # . . . . . . . . . . . . $ % . . . . . . . . . . . . . . . . . . . . . . . . . . . . . . . . . . . . ",
". . . . . . . . . . . . . . . . . . . . . . . . . . . . . . & * . . . . + = - ; > . . . , ' ) . . . . . . . . . . . . . . . . . . . . . . . . . . . . . . . . . . . ",
". . . . . . . . . . . . . . . . . . . . . . . . . . . . . . ! ~ . . . { ] ^ / ( _ : . . < [ } . . . . . . . . . . . . . . . . . . . . . . . . . . . . . . . . . . . ",
". . . . . . . . . . . . . . . . . . . . . . . . . . . . . . ! ~ . . | 1 2 3 . 4 5 6 7 . > 8 9 . . . . . . . . . . . . . . . . . . . . . . . . . . . . . . . . . . . ",
". . . . . . . . . . . . . . . . . . . . . . . . . . . . . . ! ~ . . 0 a b . . . c d e . . f g h . . . . . . . . . . . . . . . . . . . . . . . . . . . . . . . . . . ",
". . . . . . . . . . . . . . . . . . . . . . . . . . . . . . ! ~ . . i j k . . . l m n . . o p n . . . . . . . . . . . . . . . . . . . . . . . . . . . . . . . . . . ",
". . . . . . . . . . . . . . . . . . . . . . . . . . . . . . ! ~ . q r s e . . . t u v . . . w x y . . . . . . . . . . . . . . . . . . . . . . . . . . . . . . . . . ",
". . . . . . . . . . . . . . . . . . . . . . . . . . . . . . ! ~ . z A B C . . . D E F . . . G H I . . . . . . . . . . . . . . . . . . . . . . . . . . . . . . . . . ",
". . . . . . . . . . . . . . . . . . . . . . . . . . . . . . ! ~ . z J B C . . . K E L 7 . . q M _ . . . . . . . . . . . . . . . . . . . . . . . . . . . . . . . . . ",
". . . . . . . . . . . . . . . . . . . . . . . . . . . . . . ! ~ . z J B C . . . D E L 7 . . . N O ) . . . . . . . . . . . . . . . . . . . . . . . . . . . . . . . . ",
". . . . . . . . . . . . . . . . . . . . . . . . . . . . . . ! ~ . z P Q C . . . R S F . . . . T U V . . . . . . . . . . . . . . . . . . . . . . . . . . . . . . . . ",
". . . . . . . . . . . . . . . . . . . . . . . . . . . . . . ! ~ . > W X Y . . . Z u v . . . + `  .y . . . . . . . . . . . . . . . . . . . . . . . . . . . . . . . . ",
". . . . . . . . . . . . . . . . . . . . . . . . . . . . . . ! ~ . . ..+.@.. . . #.$.%.. . . &.*.=.. . . . . . . . . . . . . . . . . . . . . . . . . . . . . . . . . ",
". . . . . . . . . . . . . . . . . . . . . . . . . . . . . . ! ~ . . f a -.. . . ;.>.,.. . . '.).V . . . . . . . . . . . . . . . . . . . . . . . . . . . . . . . . . ",
". . . . . . . . . . . . . . . . . . . . . . . . . . . . . . ! ~ . . > !.~.{.].^./.(.. . . + _.:.. . . . . . . . . . . . . . . . . . . . . . . . . . . . . . . . . . ",
". . . . . . . . . . . . . . . . . . . . . . . . . . . . . . ! ~ . . . <.[.}.|.1.2.. . . . 3.4.5.. . . . . . . . . . . . . . . . . . . . . . . . . . . . . . . . . . ",
". . . . . . . . . . . . . . . . . . . . . . . . . . . . . . ! ~ . . . . . 6.7.: . . . . . 8.9.0.. . . . . . . . . . . . . . . . . . . . . . . . . . . . . . . . . . ",
". . . . . . . . . . . . . . . . . . . . . . . . . . . . . . ! ~ . . . . . . . . . . . . <.a.6 . . . . . . . . . . . . . . . . . . . . . . . . . . . . . . . . . . . ",
". . . . . . . . . . . . . . . . . . . . . . . . . . . . . . ! ~ . . . . . . . . . . . . 4 b.c.. . . . . . . . . . . . . . . . . . . . . . . . . . . . . . . . . . . ",
". . . . . . . . . . . . . . . . . . . . . . . . . . . . . . d.e.. . . . . . . . . . . . f.g.7 . . . . . . . . . . . . . . . . . . . . . . . . . . . . . . . . . . . ",
". . . . . . . . . . . . . . . . . . . . . . . . . . . . . . h.i.. . . . . . . . . . . . j.k.. . . . . . . . . . . . . . . . . . . . . . . . . . . . . . . . . . . . ",
". . . . . . . . . . . . . . . . . . . . . . . . . . . . . . . . . . . . . . . . . . . . . . . . . . . . . . . . . . . . . . . . . . . . . . . . . . . . . . . . . . "};
