/* XPM */
static char * state_YPLUS_xpm[] = {
"80 23 228 2",
"  	c None",
". 	c #FFFFFF",
"+ 	c #F1F1EC",
"@ 	c #F6FEFF",
"# 	c #F6F0E2",
"$ 	c #F4F6F8",
"% 	c #FBF5F3",
"& 	c #EDF2F5",
"* 	c #EDE2F1",
"= 	c #FFF5E4",
"- 	c #A0AD88",
"; 	c #D5ECFA",
"> 	c #CFBB80",
", 	c #90B6C8",
"' 	c #E8D5A8",
") 	c #91BBB9",
"! 	c #F5DFCE",
"~ 	c #9B738F",
"{ 	c #DEF3FD",
"] 	c #FEF3DC",
"^ 	c #879F70",
"/ 	c #C3E7F7",
"( 	c #F4ECDE",
"_ 	c #BDB0AD",
": 	c #AAA6A5",
"< 	c #B6C1CE",
"[ 	c #ECF7FC",
"} 	c #E4D2B2",
"| 	c #6B758F",
"1 	c #E3F6FE",
"2 	c #DED3C3",
"3 	c #BDCBD3",
"4 	c #E2CE96",
"5 	c #71AEAA",
"6 	c #E9E9E8",
"7 	c #D3CCE5",
"8 	c #FFF9E7",
"9 	c #91836A",
"0 	c #B5C4D8",
"a 	c #E5CCBA",
"b 	c #837981",
"c 	c #AAB1B9",
"d 	c #BFBEBE",
"e 	c #AEA48F",
"f 	c #7B8B9A",
"g 	c #D9EFF9",
"h 	c #927679",
"i 	c #ACC6E5",
"j 	c #704331",
"k 	c #326888",
"l 	c #ECFAFF",
"m 	c #DEC0AD",
"n 	c #B8AB99",
"o 	c #5E4B43",
"p 	c #5E66AF",
"q 	c #D2B392",
"r 	c #6C93AE",
"s 	c #FAEEDB",
"t 	c #7F5E48",
"u 	c #88ACCB",
"v 	c #FFFAEB",
"w 	c #94725F",
"x 	c #CCAC8C",
"y 	c #899EB3",
"z 	c #E0D0AE",
"A 	c #C7DCE4",
"B 	c #BCA2A2",
"C 	c #E6D8B9",
"D 	c #969693",
"E 	c #A6A6A6",
"F 	c #493C39",
"G 	c #4E60AA",
"H 	c #F6EAD3",
"I 	c #836D7E",
"J 	c #D4EAF8",
"K 	c #D8B899",
"L 	c #3A285A",
"M 	c #C4DDF2",
"N 	c #32345C",
"O 	c #CCE4F5",
"P 	c #F5E6CD",
"Q 	c #7B6E8B",
"R 	c #C6AB75",
"S 	c #9EC3D0",
"T 	c #4D5FA9",
"U 	c #FEFBF4",
"V 	c #AC9A79",
"W 	c #90B7D8",
"X 	c #AC8C4B",
"Y 	c #194770",
"Z 	c #EAC4AB",
"` 	c #451421",
" .	c #94C3DD",
"..	c #AC8E6D",
"+.	c #93BBD3",
"@.	c #E6E6E8",
"#.	c #787999",
"$.	c #93522F",
"%.	c #1A5C7B",
"&.	c #EBC8AD",
"*.	c #3D1916",
"=.	c #61AACA",
"-.	c #DDC1A3",
";.	c #6E8697",
">.	c #9D9685",
",.	c #8FA4B7",
"'.	c #89716E",
").	c #BFD8EB",
"!.	c #8A382D",
"~.	c #EBDAAE",
"{.	c #3F2013",
"].	c #5895C0",
"^.	c #C5DAEE",
"/.	c #C5B3AA",
"(.	c #DBBC8A",
"_.	c #4D4B42",
":.	c #C3A985",
"<.	c #7AA3C5",
"[.	c #EDD3AF",
"}.	c #578ABB",
"|.	c #C3A27C",
"1.	c #84A8C4",
"2.	c #C9AE77",
"3.	c #A0C7D4",
"4.	c #B2BACC",
"5.	c #AE8963",
"6.	c #38406B",
"7.	c #ECDBC3",
"8.	c #827284",
"9.	c #5A93BF",
"0.	c #EAD5BE",
"a.	c #D6B5AD",
"b.	c #8C8686",
"c.	c #868686",
"d.	c #67593D",
"e.	c #51666D",
"f.	c #868B8F",
"g.	c #B6D6E5",
"h.	c #E6EBEB",
"i.	c #6E4020",
"j.	c #5E8FB2",
"k.	c #8C8677",
"l.	c #ABC7E9",
"m.	c #195576",
"n.	c #3B1215",
"o.	c #E5CCB3",
"p.	c #846D89",
"q.	c #7A684A",
"r.	c #587A85",
"s.	c #A6A9AD",
"t.	c #CDE0EC",
"u.	c #DFC599",
"v.	c #252644",
"w.	c #ABC9E4",
"x.	c #897D84",
"y.	c #A98942",
"z.	c #173B6B",
"A.	c #E5BDA5",
"B.	c #3E141F",
"C.	c #B8A08E",
"D.	c #87A4CB",
"E.	c #A37252",
"F.	c #3A5978",
"G.	c #E9D5B6",
"H.	c #6E7987",
"I.	c #301D52",
"J.	c #2A3259",
"K.	c #FBEED2",
"L.	c #767A7B",
"M.	c #59452F",
"N.	c #77A4C9",
"O.	c #B8AFC1",
"P.	c #E2EDF8",
"Q.	c #C09775",
"R.	c #8CA9C5",
"S.	c #775D48",
"T.	c #937749",
"U.	c #658BA3",
"V.	c #D9BAA4",
"W.	c #83879D",
"X.	c #51204C",
"Y.	c #BEDAF2",
"Z.	c #E6DEC0",
"`.	c #A4BEB6",
" +	c #54402E",
".+	c #425590",
"++	c #7D7683",
"@+	c #796C7D",
"#+	c #ACBCCE",
"$+	c #E0E0DA",
"%+	c #797F90",
"&+	c #DCECF6",
"*+	c #A19077",
"=+	c #99BEDF",
"-+	c #F6E4D2",
";+	c #745966",
">+	c #95A1A8",
",+	c #8FA9B2",
"'+	c #CFEBF5",
")+	c #86827B",
"!+	c #726B5D",
"~+	c #393122",
"{+	c #313940",
"]+	c #6B7377",
"^+	c #7E8997",
"/+	c #F3EBE3",
"(+	c #C4BEB4",
"_+	c #A9A9AB",
":+	c #C3CCD5",
"<+	c #F3E2C3",
"[+	c #787279",
"}+	c #D8D8DB",
"|+	c #E8E8E7",
"1+	c #EBEBEC",
"2+	c #A68379",
"3+	c #9AB2D9",
"4+	c #C59E8E",
"5+	c #8698B7",
"6+	c #CADEE6",
"7+	c #6E7386",
"8+	c #B3D2EB",
"9+	c #869E6E",
"0+	c #7D738F",
"a+	c #AFCBE9",
"b+	c #ADB791",
"c+	c #D2C29D",
"d+	c #9FC3BE",
"e+	c #A49393",
". . . . . . . . . . . . . . . . . . . . . . . . . . . . . . . . . . . . . . . . . . . . . . . . . . . . . . . . . . . . . . . . . . . . . . . . . . . . . . . . ",
". . + @ . . . . . . . . . . . . # $ . . . . . . . . . . . . . . . . . . . . . . . . . . . . . . . . . . . . . . . . . % & . . . . . . . . . . . . % * . . . . . ",
". = - ; . . . . . . . . . . . . > , . . . . . . . . . . . . . . . . . . . . . . . . . . . . . . . . . . . . . . . . . ' ) . . . . . . . . . . . . ! ~ { . . . . ",
". ] ^ / . . . . ( _ : < [ . . . } | 1 . . . . . . . . . . . . . . . . . . . . . . . . . . . . . . . . 2 3 @ . . . . . 4 5 @ . . . . . 6 7 . . . . 8 9 0 . . . . ",
". ] ^ / . . . a b c d e f g . . = h i . . . . . . . . . . . . . . . . . . . . . . . . . . . . . . . = j k l . . . . . 4 5 . . . 6 m n o p @ . . . . q r @ . . . ",
". ] ^ / . . s t u . . v w r @ . . x y @ . . . . . . . . . . . . . . z A . . . . . . . . . . . . . . v B 0 . . . . . . 4 5 @ . . C D E F G @ . . . . H I J . . . ",
". ] ^ / . . K L M . . . x N O . . P Q ; . . . . . . . . . . . . . . R S . . . . . . . . . . . . . . . . . . . . . . . 4 5 @ . . . . 8 o T @ . . . . U V W . . . ",
". ] ^ / . . X Y { . . . Z `  .. . U ..+.. . . . . . . . . . . . . . R S . . . . . . . . . . . . . % @.@ . . . . . . . 4 5 @ . . . . = o T @ . . . . . m #.l . . ",
". ] ^ / . v $.%.1 . . . &.*.=.. . . -.;.[ . . . . . . . . . . . . U R S . . . . . . . . . . . . H _ >.,.$ . . . . . . 4 5 @ . . . . = o G @ . . . . . ] '.).. . ",
". ] ^ / . v !.%.1 . . . ~.{.].. . . ] I ^.. . . . . . . . . . . . . R S . . . . . . . . . . . U /.A (._.; . . . . . . 4 5 @ . . . . = o G @ . . . . . . :.<.. . ",
". ] ^ / . 8 !.%.1 . . . [.{.}.. . . . |.1.. . . . . . . . . . . . . 2.3.. . . . . . . . . . . P 4.U 5.6.{ . . . . . . 4 5 @ . . . . = o G @ . . . . . . 7.8.{ . ",
". ] ^ / . v !.%.1 . . . [.{.9.. . . . 0.Q 1 . . . . . . a.b.c.c.c.c.d.e.c.c.c.c.f.g.. . . . . # h.s i.j.@ . . . . . . 4 5 . . . . . = o G @ . . . . . . v k.l.. ",
". ] ^ / . v $.m.{ . . . Z n.=.. . . . o.p.[ . . . . . . a E E E E E q.r.E E E E s.t.. . . . . . . u.v.w.. . . . . . . 4 5 @ . . . . = o G @ . . . . . . 8 x.l.. ",
". ] ^ / . . y.z.; . . . A.B.W . . . U C.D.. . . . . . . . . . . . . R S . . . . . . . . . . . . U E.F.1 % @ . . . . . 4 5 @ . . . . = o G @ . . . . . . G.H.{ . ",
". ] ^ / . . q I.M . . . x J.M . . . K.L./ . . . . . . . . . . . . . R S . . . . . . . . . . . . P M.N.U O.P.. . . . . 4 5 @ . . . . 8 o G @ . . . . . . Q.R.. . ",
". ] ^ / . . s S.<.. . v T.U.. . . . V.W.$ . . . . . . . . . . . . . R S . . . . . . . . . . . . Z X.Y.Z.`.$ . . . . . 4 5 . . . . . P  +.+[ . . . . . ] ++M . . ",
". ] ^ / . . . } @+#+$+C.%+&+. . . U *+=+. . . . . . . . . . . . . . R S . . . . . . . . . . . . -+;+>+,+'+. . . . . . 4 5 @ . . 7.)+!+~+{+]+W.&+. . . K ^+l . . ",
". ] ^ / . . . . /+(+_+:+[ . . . . <+[+&+. . . . . . . . . . . . . . R S . . . . . . . . . . . . . /+}+& . . . . . . . 4 5 @ . . % |+6 1+6 6 1+@ . . U 2+3+. . . ",
". ] ^ / . . . . . . . . . . . . . 4+5+. . . . . . . . . . . . . . . z 6+. . . . . . . . . . . . . . . . . . . . . . . 4 5 @ . . . . . . . . . . . . <+7+; . . . ",
". ] ^ / . . . . . . . . . . . . = k.8+. . . . . . . . . . . . . . . . . . . . . . . . . . . . . . . . . . . . . . . . 4 5 @ . . . . . . . . . . . . x ,.. . . . ",
". ] 9+/ . . . . . . . . . . . . o.0+1 . . . . . . . . . . . . . . . . . . . . . . . . . . . . . . . . . . . . . . . . 4 5 @ . . . . . . . . . . . = h a+. . . . ",
". = b+; . . . . . . . . . . . . c++.. . . . . . . . . . . . . . . . . . . . . . . . . . . . . . . . . . . . . . . . . ~.d+. . . . . . . . . . . . -+e+1 . . . . ",
". . U . . . . . . . . . . . . . % @ . . . . . . . . . . . . . . . . . . . . . . . . . . . . . . . . . . . . . . . . . . @ . . . . . . . . . . . . . $ . . . . . "};
