/* XPM */
static char *state__[] = {
/* columns rows colors chars-per-pixel */
"96 23 205 2",
"   c #3BEB12771595",
".  c #3D4F1A0C1638",
"X  c #3EDF143B1F93",
"o  c #3F8420AC1374",
"O  c #2EF929C92261",
"+  c #2F2522742989",
"@  c #29B221773733",
"#  c #365D2AAE3D6D",
"$  c #408F239E1343",
"%  c #452314C42128",
"&  c #67CC599C3DB3",
"*  c #30421D995322",
"=  c #3A7528AA5A11",
"-  c #2A2932BF5936",
";  c #32A134EC5C04",
":  c #17D63B0F6B26",
">  c #459B3391437F",
",  c #3D3B47BB5067",
"<  c #194F479C709D",
"1  c #19C8559876A6",
"2  c #1A555CD57BAC",
"3  c #77375D0F48EB",
"4  c #7FEF5E9A483D",
"5  c #6BB562164FBE",
"6  c #7AE868C34A64",
"7  c #517866606DCC",
"8  c #79EB6DD47C92",
"9  c #799778037335",
"0  c #72FB76B778F4",
"q  c #796C7391793C",
"w  c #76587AF27B8B",
"e  c #7CDC7B9D7A2D",
"r  c #8A5B387E2DE0",
"t  c #93D352F02F13",
"y  c #934E76E949BF",
"u  c #94AF73865DA2",
"i  c #886F6F517718",
"p  c #91CE7626783B",
"a  c #A9B7898D428F",
"s  c #AC398CB24BA2",
"d  c #862B9E9D6EFA",
"f  c #8C0386C776E0",
"g  c #870B9F6F70A3",
"h  c #A1E881956A02",
"j  c #ACBC8E5F6CC0",
"k  c #A1CD8FF377BA",
"l  c #B41F8B977352",
"z  c #A27A90E276E8",
"x  c #B35794337D47",
"c  c #C69AABC674F7",
"v  c #CA2EAEF777C5",
"b  c #C318A26E7C51",
"n  c #C686B88F76F0",
"m  c #C711B95978FE",
"M  c #58927A7085F1",
"N  c #7B606E2D8BD6",
"B  c #6D0573168E23",
"V  c #729475BF8730",
"C  c #743E79B983FE",
"Z  c #7DC0739A8FEE",
"A  c #6BA17DB89CC1",
"S  c #7009762B941C",
"D  c #7D9574D69235",
"F  c #791D7F6790AA",
"G  c #83316F43810F",
"H  c #841D6D6388C5",
"J  c #838A79AE81DB",
"K  c #6E2B875A9839",
"L  c #7BA48B499A58",
"P  c #57BD8A11BB88",
"I  c #5AA0921BBEC5",
"U  c #65B98B7CA346",
"Y  c #749E8FE4A51D",
"T  c #691F9279AE66",
"R  c #6BD38495B672",
"E  c #7EA69DE9B08F",
"W  c #58C495A5C075",
"Q  c #7AAD9106CCCA",
"!  c #616BAA98CAD7",
"~  c #86F086EF86B7",
"^  c #8C0486E786D7",
"/  c #86E68BF68FEC",
"(  c #849A873A9F2C",
")  c #912C95169728",
"_  c #ADC3A2C98C9D",
"`  c #A0AFAD7A8875",
"'  c #B875A0318EAC",
"]  c #AA85A70C97E9",
"[  c #AD03B7CB9169",
"{  c #9BB588F7A88E",
"}  c #86CE98ACB7B9",
"|  c #86A096F4B8BB",
" . c #90D99731B163",
".. c #8BA0A6C3BAB0",
"X. c #A681A678A616",
"o. c #AA0CA640A5D2",
"O. c #A27DA298AB0B",
"+. c #A640A9F6AD16",
"@. c #A926A978AB5A",
"#. c #BDCCB0C5AD3B",
"$. c #AA71B1D2B94A",
"%. c #BF36BEC4BEC0",
"&. c #C5489FB981F5",
"*. c #C6069DD68E50",
"=. c #CC25AD1B8C40",
"-. c #D25BB02A8B1C",
";. c #CFC8BB96800A",
":. c #D02CB77696A1",
">. c #D251B3699303",
",. c #D854B8D19A09",
"<. c #D9B6BA49A4BD",
"1. c #D68EB5FFAD11",
"2. c #C4F5BE47B47C",
"3. c #E51EBD8EA5E4",
"4. c #E85EBF29A94B",
"5. c #D265C2E88F11",
"6. c #D808CAEC9743",
"7. c #D2B7C31E9CDE",
"8. c #D628C747A792",
"9. c #DD41C2C1A3C2",
"0. c #D80FC9E0AE78",
"q. c #DF5DCB19A925",
"w. c #C54EC368BF51",
"e. c #EB30C495AC8E",
"r. c #EBC2C906AE05",
"t. c #E0B4D072AE13",
"y. c #ED93D361AFF7",
"u. c #E648C067B412",
"i. c #E60DCDB5B560",
"p. c #E94ECED6B6BC",
"a. c #E58BCCC6BA78",
"s. c #E41CD23CB359",
"d. c #EBFAD764B42A",
"f. c #EA76D53FBE90",
"g. c #F0DCDF08BF9D",
"h. c #838E92E8CED2",
"j. c #83BBA610C577",
"k. c #87D1A4D4CAEC",
"l. c #83E3AECDCEE4",
"z. c #88FAAD6ECBCF",
"x. c #8057BFF8CB4F",
"c. c #90BCB632C800",
"v. c #93E9BC23D45C",
"b. c #9B6ABACFD4C5",
"n. c #96CFBF4CDFB3",
"m. c #9920BE2BDF87",
"M. c #AC49BC6CCEB1",
"N. c #8168C0BCCC0B",
"B. c #9E34C384D0EF",
"V. c #9D66CB0DD620",
"C. c #9434C3F1DD37",
"Z. c #B65AC1F0CEA2",
"A. c #A120C709D4A8",
"S. c #A9C1D13AD95B",
"D. c #A6CBC75DE1CF",
"F. c #AF1CC49FE3DB",
"G. c #B65AD638E5F3",
"H. c #B309D2DDEC2F",
"J. c #BAE6D183ED11",
"K. c #C3DACC47D504",
"L. c #E00EE001DAB3",
"P. c #E126CCF9C283",
"I. c #F31ADFBBC211",
"U. c #E766D934DA9F",
"Y. c #F37CE07FC0B6",
"T. c #F76AE654CAF9",
"R. c #F869E8BECC2D",
"E. c #FB36E8EBCC6F",
"W. c #EC55E4C0D401",
"Q. c #FAB0EC65D15B",
"!. c #F447EAB7DF76",
"~. c #FAA2EDD7DA98",
"^. c #FE4EF332DCAB",
"/. c #CA7DDE88E68E",
"(. c #C4B5D9F4EF4F",
"). c #D9FED8D2EEAB",
"_. c #C29DDD90F421",
"`. c #CD20E0C3ECF4",
"'. c #C3E0E794F787",
"]. c #CC0CE3FFF5F7",
"[. c #D253E661F7B8",
"{. c #DA7AED7AF655",
"}. c #D5BAED4BFA5F",
"|. c #D9CAEF64FA4C",
" X c #DC56F2F0FD09",
".X c #E81AE7ECE7CB",
"XX c #EAE6EAFFEB57",
"oX c #F25FEB4EE4D7",
"OX c #F657F0EBE285",
"+X c #FE63F587E359",
"@X c #F1B4F181EC70",
"#X c #FBC1F614EB00",
"$X c #FFC8FB1DECF3",
"%X c #EDA5EAC0F39A",
"&X c #F932EFF5F23A",
"*X c #E321F659FE6F",
"=X c #ECE8F726FDC0",
"-X c #EB96F973FEF3",
";X c #F17EF6EBF7F8",
":X c #F898F5FAF147",
">X c #FE3EFBDDF5A2",
",X c #F17CF717F9BF",
"<X c #F8D6F7DCFA40",
"1X c #F502FD24FF5B",
"2X c #FFF1FFFAFFEB",
/* pixels */
"2X2X2X2X2X2X2X2X2X2X2X2X2X2X2X2X2X2X2X2X2X2X2X2X2X2X2X2X2X2X2X2X2X2X2X2X2X2X2X2X2X2X2X2X2X2X2X2X2X2X2X2X2X2X2X2X2X2X2X2X2X2X2X2X2X2X2X2X2X2X2X2X2X2X2X2X2X2X2X2X2X2X2X2X2X2X2X2X2X2X2X2X2X2X2X2X",
"2X2X2X2X2X2X@X1X2X2X2X2X2X2X2X2X2X2X2X2XOX;X2X2X2X2X2X2X2X2X2X2X2X2X2X2X2X2X2X2X2X2X2X2X2X2X2X2X2X2X2X2X2X#X=X2X2X2X2X2X2X2X2X2X2X2X2X&X%X2X2X2X2X2X2X2X2X2X2X2X2X2X2X2X2X2X2X2X2X2X2X2X2X2X2X2X",
"2X2X2X2X2X+X` }.2X2X2X2X2X2X2X2X2X2X2X2Xm c.2X2X2X2X2X2X2X2X2X2X2X2X2X2X2X2X2X2X2X2X2X2X2X2X2X2X2X2X2X2X2X5.V.2X2X2X2X2X2X2X2X2X2X2X2Xu.{ 1X2X2X2X2X2X2X2X2X2X2X2X2X2X2X2X2X2X2X2X2X2X2X2X2X2X2X",
"2X2X2X2X2X^.d '.2X2X2X2X!.#.o.Z.=X2X2X2Xf.B *X2X2X2X2X2X2X2X2X2X2X2X2X2X2X2X2X2X2X2X2X2X2X2X2X2X2X2X2X2X2Xm x.2X2X2X2X2X2XU.).2X2X2X2XE.9 ].2X2X2X2X2X2X2X2X2X2X2X2X2X2X2X2X2X2X2X2X2X2X2X2X2X2X",
"2X2X2X2X2X^.g '.2X2X2Xa.J $.%._ L |.2X2X#Xp F.2X2X2X2X2X2X2X2X2X2X2X2X2X2X2X2X2X2X2X2X2X2X2X2X2X2X2X2X2X2Xm N.2X2X2XW.w._ > h.2X2X2X2X>Xx l.2X2X2X2X2X2X2X2X2X2X2X2X2X2X2X2X2X2X2X2X2X2X2X2X2X2X",
"2X2X2X2X2X^.g '.2X2X~.4 z.2X2X$Xu T 1X2X2X-.E 1X2X2X2X2X2X2X2X2X2X2X2X2X2X2Xq./.2X2X2X2X2X2X2X2X2X2X2X2X2Xm N.2X2X2X8.) ] @ Q 2X2X2X2X2Xs.D *X2X2X2X2X2X2X2X2X2X2X2X2X2X2X2X2X2X2X2X2X2X2X2X2X2X",
"2X2X2X2X2X^.g '.2X2X,.= ].2X2X2X=.; ].2X2XT.N }.2X2X2X2X2X2X2X2X2X2X2X2X2X2Xc B.2X2X2X2X2X2X2X2X2X2X2X2X2Xm x.2X2X2X2X2XT.# Q 2X2X2X2X2X+Xf H.2X2X2X2X2X2X2X2X2X2X2X2X2X2X2X2X2X2X2X2X2X2X2X2X2X",
"2X2X2X2X2X^.g '.2X2Xs < }.2X2X2Xe.% C.2X2X>Xj b.2X2X2X2X2X2X2X2X2X2X2X2X2X2Xc B.2X2X2X2X2X2X2X2X2X2X2X2X2Xm N.2X2X2X2X2XT.# Q 2X2X2X2X2X2X*.| 2X2X2X2X2X2X2X2X2X2X2X2X2X2X2X2X2X2X2X2X2X2X2X2X2X",
"2X2X2X2X2X^.g '.2X$Xt 2  X2X2X2Xr.. ! 2X2X2X9.K -X2X2X2X2X2X2X2X2X2X2X2X2X>Xc B.2X2X2X2X2X2X2X2X2X2X2X2X2Xm N.2X2X2X2X2XT.# Q 2X2X2X2X2X2XI.q |.2X2X2X2X2X2X2X2X2X2X2X2X2X2X2X2X2X2X2X2X2X2X2X2X",
"2X2X2X2X2X^.g '.2X$Xr 2 *X2X2X2Xy.$ I 2X2X2XOXi (.2X2X2X2X2X2X2X2X2X2X2X2X2Xc B.2X2X2X2X2X2X2X2X2X2X2X2X2Xm N.2X2X2X2X2XT.# Q 2X2X2X2X2X2X>Xz n.2X2X2X2X2X2X2X2X2X2X2X2X2X2X2X2X2X2X2X2X2X2X2X2X",
"2X2X2X2X2X^.g '.2X$Xr 2 *X2X2X2Xd.$ P 1X2X2X2Xb j.2X2X2X2X2X2X2X2X2X2X2X2X2Xv A.2X2X2X2X2X2X2X2X2X2X2X2X2Xm N.2X2X2X2X2XT.# Q 2X2X2X2X2X2X2X<.( 1X2X2X2X2X2X2X2X2X2X2X2X2X2X2X2X2X2X2X2X2X2X2X2X",
"2X2X2X2X2X^.g '.2X$Xr 2 *X2X2X2Xy.o I 2X2X2X2Xf.N *X2X2X2X2X2X2X1.^ ~ ~ ~ ~ & 7 ~ ~ ~ ~ / G.2X2X2X2X2X2X2Xm N.2X2X2X2X2XT.# Q 2X2X2X2X2X2X2XE.C ].2X2X2X2X2X2X2X2X2X2X2X2X2X2X2X2X2X2X2X2X2X2X2X",
"2X2X2X2X2X^.g '.2X$Xt 1  X2X2X2Xe.  ! 2X2X2X2Xd.H -X2X2X2X2X2X2Xa.X.X.X.X.X.6 M X.X.X.X.+.`.2X2X2X2X2X2X2Xm N.2X2X2X2X2XT.# Q >X2X2X2X2X2X2XE.B ].2X2X2X2X2X2X2X2X2X2X2X2X2X2X2X2X2X2X2X2X2X2X2X",
"2X2X2X2X2X^.g '.2X>Xa : |.2X2X2X3.X v.2X2X2X2Xx k.2X2X2X2X2X2X2X2X2X2X2X2X2Xc B.2X2X2X2X2X2X2X2X2X2X2X2X2Xm N.2X2X2X2X2XT.# Q 2X2X2X2X2X2X2X:.Y 1X2X2X2X2X2X2X2X2X2X2X2X2X2X2X2X2X2X2X2X2X2X2X2X",
"2X2X2X2X2X^.d '.2X2X>.* _.2X2X2X=.- ].2X2X2XE.w _.2X2X2X2X2X2X2X2X2X2X2X2X2Xc B.2X2X2X2X2X2X2X2X2X2X2X2X2Xm x.2X2X2X2X2XR.# Q 2X2X2X2X2X2X$Xh D.2X2X2X2X2X2X2X2X2X2X2X2X2X2X2X2X2X2X2X2X2X2X2X2X",
"2X2X2X2X2X^.d '.2X2X~.6 Q 2X2X$Xy U 1X2X2X2X<.( 1X2X2X2X2X2X2X2X2X2X2X2X2X2Xc B.2X2X2X2X2X2X2X2X2X2X2X2X2Xm x.2X2X2X2X2Xd.+ R <X2X2X2X2X2XI.S  X2X2X2X2X2X2X2X2X2X2X2X2X2X2X2X2X2X2X2X2X2X2X2X2X",
"2X2X2X2X2X^.g '.2X2X2Xt.8 M.L.' F {.2X2X2X>Xz m.2X2X2X2X2X2X2X2X2X2X2X2X2X2Xc B.2X2X2X2X2X2X2X2X2X2X2X2X2Xm N.2X2X2X0.e 5 O , 0  .-X2X2X2Xb ..2X2X2X2X2X2X2X2X2X2X2X2X2X2X2X2X2X2X2X2X2X2X2X2X2X",
"2X2X2X2X2X^.g '.2X2X2X2XoX2.@.K.=X2X2X2X2Xg.q |.2X2X2X2X2X2X2X2X2X2X2X2X2X2Xc B.2X2X2X2X2X2X2X2X2X2X2X2X2Xm N.2X2X2X:X.X.XXXXX.X%X2X2X2X~.i J.2X2X2X2X2X2X2X2X2X2X2X2X2X2X2X2X2X2X2X2X2X2X2X2X2X",
"2X2X2X2X2X^.g '.2X2X2X2X2X2X2X2X2X2X2X2X2X*.} 2X2X2X2X2X2X2X2X2X2X2X2X2X2X2Xs./.2X2X2X2X2X2X2X2X2X2X2X2X2Xm x.2X2X2X2X2X2X2X2X2X2X2X2X2Xq.A =X2X2X2X2X2X2X2X2X2X2X2X2X2X2X2X2X2X2X2X2X2X2X2X2X2X",
"2X2X2X2X2X^.g '.2X2X2X2X2X2X2X2X2X2X2X2X+Xf H.2X2X2X2X2X2X2X2X2X2X2X2X2X2X2X2X2X2X2X2X2X2X2X2X2X2X2X2X2X2Xm x.2X2X2X2X2X2X2X2X2X2X2X2X>Xl b.2X2X2X2X2X2X2X2X2X2X2X2X2X2X2X2X2X2X2X2X2X2X2X2X2X2X",
"2X2X2X2X2X^.d '.2X2X2X2X2X2X2X2X2X2X2X2Xi.Z *X2X2X2X2X2X2X2X2X2X2X2X2X2X2X2X2X2X2X2X2X2X2X2X2X2X2X2X2X2X2Xm x.2X2X2X2X2X2X2X2X2X2X2X2XT.V [.2X2X2X2X2X2X2X2X2X2X2X2X2X2X2X2X2X2X2X2X2X2X2X2X2X2X",
"2X2X2X2X2X+X[ }.2X2X2X2X2X2X2X2X2X2X2X2X7.v.2X2X2X2X2X2X2X2X2X2X2X2X2X2X2X2X2X2X2X2X2X2X2X2X2X2X2X2X2X2X2X6.S.2X2X2X2X2X2X2X2X2X2X2X2Xp.O.1X2X2X2X2X2X2X2X2X2X2X2X2X2X2X2X2X2X2X2X2X2X2X2X2X2X2X",
"2X2X2X2X2X2X<X2X2X2X2X2X2X2X2X2X2X2X2X2X>X<X2X2X2X2X2X2X2X2X2X2X2X2X2X2X2X2X2X2X2X2X2X2X2X2X2X2X2X2X2X2X2X>X1X2X2X2X2X2X2X2X2X2X2X2X2X<X<X2X2X2X2X2X2X2X2X2X2X2X2X2X2X2X2X2X2X2X2X2X2X2X2X2X2X2X"
};
