/* XPM */
static char * state_ZMINUS_xpm[] = {
"82 23 95 2",
"  	c None",
". 	c #FFFFFF",
"+ 	c #F1F1F1",
"@ 	c #F4F9FC",
"# 	c #F6F1E2",
"$ 	c #F1F6F8",
"% 	c #A7A0AD",
"& 	c #B9D1EC",
"* 	c #C4A47C",
"= 	c #90B6C8",
"- 	c #96879F",
"; 	c #AAC3E8",
"> 	c #FFFDF4",
", 	c #E0D5C5",
"' 	c #E6EEF3",
") 	c #EAD5BE",
"! 	c #6B748E",
"~ 	c #E6F6FE",
"{ 	c #FEFDFB",
"] 	c #DDD9D4",
"^ 	c #C2BFBC",
"/ 	c #9D8D7A",
"( 	c #222627",
"_ 	c #FEF7E8",
": 	c #927678",
"< 	c #AFC5E3",
"[ 	c #FFFBF4",
"} 	c #B9B1A7",
"| 	c #92989F",
"1 	c #A48C7F",
"2 	c #44171B",
"3 	c #AFCCE0",
"4 	c #D2B08C",
"5 	c #7E9EB0",
"6 	c #F7FDFF",
"7 	c #DDC3A4",
"8 	c #45171B",
"9 	c #A9CBE1",
"0 	c #F6E7CE",
"a 	c #796D89",
"b 	c #D7ECF9",
"c 	c #E4BCA4",
"d 	c #FFFEF3",
"e 	c #AC8E6C",
"f 	c #98B9D5",
"g 	c #6E8797",
"h 	c #E8F8FF",
"i 	c #FCF2DD",
"j 	c #846F7F",
"k 	c #C4DAEE",
"l 	c #84ABC5",
"m 	c #7C6F8D",
"n 	c #E8CFB5",
"o 	c #846D88",
"p 	c #87A4CA",
"q 	c #ABCDE2",
"r 	c #FBEED3",
"s 	c #77797A",
"t 	c #C5E0F3",
"u 	c #D2AE93",
"v 	c #2D1115",
"w 	c #90BBD4",
"x 	c #FBFDFE",
"y 	c #DABAA5",
"z 	c #84879E",
"A 	c #F1FCFF",
"B 	c #C3AA9F",
"C 	c #7C7976",
"D 	c #5D5549",
"E 	c #415762",
"F 	c #9EB5C2",
"G 	c #A29077",
"H 	c #97BEDF",
"I 	c #F4F0EE",
"J 	c #E8E7E7",
"K 	c #E9EAEA",
"L 	c #EDEDEC",
"M 	c #EBE9E9",
"N 	c #EEF2F4",
"O 	c #797278",
"P 	c #D9EFFA",
"Q 	c #C69E8D",
"R 	c #8798B7",
"S 	c #FEF5E2",
"T 	c #8B8677",
"U 	c #B2D2EC",
"V 	c #A8C3E8",
"W 	c #E5CDB4",
"X 	c #7C738F",
"Y 	c #AFADB7",
"Z 	c #BFD7EE",
"` 	c #D2C29D",
" .	c #93BBD3",
"..	c #F9FAF9",
"+.	c #FBF8F5",
". . . . . . . . . . . . . . . . . . . . . . . . . . . . . . . . . . . . . . . . . . . . . . . . . . . . . . . . . . . . . . . . . . . . . . . . . . . . . . . . . . ",
". . . . . . . . . . . . . . . . . . . . . . . . . . . . . . + @ . . . . . . . . . . . . # $ . . . . . . . . . . . . . . . . . . . . . . . . . . . . . . . . . . . . ",
". . . . . . . . . . . . . . . . . . . . . . . . . . . . . . % & . . . . . . . . . . . . * = . . . . . . . . . . . . . . . . . . . . . . . . . . . . . . . . . . . . ",
". . . . . . . . . . . . . . . . . . . . . . . . . . . . . . - ; . . . . . > , ' . . . . ) ! ~ { . . . . . . . . . . . . . . . . . . . . . . . . . . . . . . . . . . ",
". . . . . . . . . . . . . . . . . . . . . . . . . . . . . . - ; . . > ] ^ / ( & . . . . _ : < . . . . . . . . . . . . . . . . . . . . . . . . . . . . . . . . . . . ",
". . . . . . . . . . . . . . . . . . . . . . . . . . . . . . - ; . . [ } | 1 2 3 . . . . . 4 5 6 . . . . . . . . . . . . . . . . . . . . . . . . . . . . . . . . . . ",
". . . . . . . . . . . . . . . . . . . . . . . . . . . . . . - ; . . . . . 7 8 9 . . . . . 0 a b . . . . . . . . . . . . . . . . . . . . . . . . . . . . . . . . . . ",
". . . . . . . . . . . . . . . . . . . . . . . . . . . . . . - ; . . . . . c 2 9 . . . . . d e f . . . . . . . . . . . . . . . . . . . . . . . . . . . . . . . . . . ",
". . . . . . . . . . . . . . . . . . . . . . . . . . . . . . - ; . . . . . c 2 9 . . . . . . 7 g h . . . . . . . . . . . . . . . . . . . . . . . . . . . . . . . . . ",
". . . . . . . . . . . . . . . . . . . . . . . . . . . . . . - ; . . . . . c 8 9 . . . . . . i j k . . . . . . . . . . . . . . . . . . . . . . . . . . . . . . . . . ",
". . . . . . . . . . . . . . . . . . . . . . . . . . . . . . - ; . . . . . c 2 9 . . . . . . { * l . . . . . . . . . . . . . . . . . . . . . . . . . . . . . . . . . ",
". . . . . . . . . . . . . . . . . . . . . . . . . . . . . . - ; . . . . . c 2 9 . . . . . . . ) m . . . . . . . . . . . . . . . . . . . . . . . . . . . . . . . . . ",
". . . . . . . . . . . . . . . . . . . . . . . . . . . . . . - ; . . . . . c 2 9 . . . . . . . n o . . . . . . . . . . . . . . . . . . . . . . . . . . . . . . . . . ",
". . . . . . . . . . . . . . . . . . . . . . . . . . . . . . - ; . . . . . c 2 9 . . . . . . { 1 p . . . . . . . . . . . . . . . . . . . . . . . . . . . . . . . . . ",
". . . . . . . . . . . . . . . . . . . . . . . . . . . . . . - ; . . . . . c 8 q . . . . . . r s t . . . . . . . . . . . . . . . . . . . . . . . . . . . . . . . . . ",
". . . . . . . . . . . . . . . . . . . . . . . . . . . . . . - ; . . . . { u v w x . . . . . y z A . . . . . . . . . . . . . . . . . . . . . . . . . . . . . . . . . ",
". . . . . . . . . . . . . . . . . . . . . . . . . . . . . . - ; . . > B C D ( E s F 6 . . d G H . . . . . . . . . . . . . . . . . . . . . . . . . . . . . . . . . . ",
". . . . . . . . . . . . . . . . . . . . . . . . . . . . . . - ; . . . I J K L M J N . . . ) O P . . . . . . . . . . . . . . . . . . . . . . . . . . . . . . . . . . ",
". . . . . . . . . . . . . . . . . . . . . . . . . . . . . . - ; . . . . . . . . . . . . . Q R x . . . . . . . . . . . . . . . . . . . . . . . . . . . . . . . . . . ",
". . . . . . . . . . . . . . . . . . . . . . . . . . . . . . - ; . . . . . . . . . . . . S T U . . . . . . . . . . . . . . . . . . . . . . . . . . . . . . . . . . . ",
". . . . . . . . . . . . . . . . . . . . . . . . . . . . . . - V . . . . . . . . . . . . W X h . . . . . . . . . . . . . . . . . . . . . . . . . . . . . . . . . . . ",
". . . . . . . . . . . . . . . . . . . . . . . . . . . . . . Y Z . . . . . . . . . . . . `  .. . . . . . . . . . . . . . . . . . . . . . . . . . . . . . . . . . . . ",
". . . . . . . . . . . . . . . . . . . . . . . . . . . . . . ..x . . . . . . . . . . . . +.6 . . . . . . . . . . . . . . . . . . . . . . . . . . . . . . . . . . . . "};
