/* XPM */
static char *state__[] = {
/* columns rows colors chars-per-pixel */
"96 23 243 2",
"   c #3BE412721590",
".  c #3D3319AC1634",
"X  c #3EE114371F90",
"o  c #3F8320EF138E",
"O  c #39A5314E2265",
"+  c #408D239C1344",
"@  c #452614CE2126",
"#  c #493C3C6C3976",
"$  c #54F040BD2E64",
"%  c #597E456A2F5E",
"&  c #6EB540CF2062",
"*  c #7075439E3172",
"=  c #67B5599A3DB3",
"-  c #30981DC852D3",
";  c #25AC266B442B",
":  c #31C639EC40FC",
">  c #3A7A28AA5A0F",
",  c #2A3532B4592A",
"<  c #329D34E65C09",
"1  c #17E93B106B5A",
"2  c #5151203F4CB3",
"3  c #1954479C7099",
"4  c #19C75595769C",
"5  c #1A565CD67BAB",
"6  c #381440DD6BC1",
"7  c #3ACC593178F7",
"8  c #4DB34B914263",
"9  c #5E994BE743E0",
"0  c #77385D0B48A5",
"q  c #7FF05E7E4840",
"w  c #7AE968C34A64",
"e  c #724A6B3B5DDC",
"r  c #74EE590866A4",
"t  c #5171665F6DCC",
"y  c #79E26CAB7D58",
"u  c #6B97732777F6",
"i  c #78E172A47907",
"p  c #76587AF07B88",
"a  c #8A6738792DDA",
"s  c #93D552F12F1D",
"d  c #934E771449D7",
"f  c #947272EA5F49",
"g  c #A34072B352ED",
"h  c #8948716A6E88",
"j  c #83546DAA7E86",
"k  c #925476C779BF",
"l  c #A9BE89874284",
"z  c #AC468CBC4BA6",
"x  c #91EB83D96A82",
"c  c #862B9E9B6EF9",
"v  c #8C26867B770A",
"b  c #864482897B46",
"n  c #8D5B84197C74",
"m  c #870C9F6E70A1",
"M  c #AED989B16369",
"N  c #ACA58EAD6D22",
"B  c #A60C83A0797D",
"V  c #A1B2901C77D3",
"C  c #ACAB9A6B79B9",
"Z  c #B5AD92407F90",
"A  c #C08497DC7533",
"S  c #C65CABC27504",
"D  c #C981AEE677C5",
"F  c #C366A2A77C23",
"G  c #326D68DE88EA",
"H  c #425B55FF909D",
"J  c #58927A7085F1",
"K  c #7B186E0A8B7B",
"L  c #6E3E739186E3",
"P  c #6E8D79FD87B6",
"I  c #6B8B75078F01",
"U  c #7DA9763B83AD",
"Y  c #7DC773B28F51",
"T  c #79247F8A90C1",
"R  c #78DD79BF9933",
"E  c #4DEB5FDBA9BF",
"W  c #4E316049AAA5",
"Q  c #5E3A663AAF2E",
"!  c #846C6D618912",
"~  c #829872A9844A",
"^  c #8375795C81F0",
"/  c #898E7DA28476",
"(  c #9BB673D48FF1",
")  c #6E1A8680978F",
"_  c #7E0A89AE978D",
"`  c #7BA98B3F9A45",
"'  c #5E628F8AB21C",
"]  c #57AD8A65BBBB",
"[  c #5AA4932CBF40",
"{  c #65B98BACA367",
"}  c #6C819327AEEC",
"|  c #7EC29DEBB088",
" . c #71F1AE50AA24",
".. c #58B29582C070",
"X. c #616DAA93CAD3",
"o. c #7A74A378C53C",
"O. c #777FA4D2C969",
"+. c #86EF86EF86B7",
"@. c #8C0486E786D7",
"#. c #86E68BF58FEA",
"$. c #9DFC967285CE",
"%. c #8348870D9DEA",
"&. c #9663962D9345",
"*. c #A46593E79387",
"=. c #AE39A45D8F69",
"-. c #A0C0AD8B8852",
";. c #B876A02E8EAA",
":. c #B81AAB7B9940",
">. c #AD03B7C99168",
",. c #B847B1BE9FC3",
"<. c #86E29821B772",
"1. c #89B49EF4B399",
"2. c #95A4A1CCA842",
"3. c #8FB5A4D4B764",
"4. c #8F97A96BB2E6",
"5. c #911ABB30B990",
"6. c #A681A678A616",
"7. c #AA0CA640A5D2",
"8. c #A789A9CFA479",
"9. c #A63FA9F6AD15",
"0. c #A926A979AB5A",
"q. c #BCCCA26CA226",
"w. c #BDD0B0C3AD3C",
"e. c #A444BEA0B64B",
"r. c #AA01B1AEB96F",
"t. c #BF37BEC4BEAF",
"y. c #C5FE9EF48E8E",
"u. c #C370A9218553",
"i. c #CEE5A7AA8AB0",
"p. c #CC8DACE28C1C",
"a. c #CFC7BBC8803A",
"s. c #D28FB0328B3F",
"d. c #DBD6BC758AF2",
"f. c #D012B2AC9330",
"g. c #D24AB35792E8",
"h. c #D84FB8C499F2",
"j. c #C5B3B3D4AA57",
"k. c #D9CCBA2CA425",
"l. c #D68DB5FCAD0B",
"z. c #C4F5BE48B479",
"x. c #E562BD5DA5A5",
"c. c #E87DBF55A90B",
"v. c #9F90C350BECB",
"b. c #D283C2AA9D3F",
"n. c #DF57C54199CC",
"m. c #E2D9CEBE969C",
"M. c #DD86C1F7A3D6",
"N. c #DE53C095AD3D",
"B. c #EAC2C4F6AB6E",
"V. c #EBAEC8C4ADD3",
"C. c #E84DD535A801",
"Z. c #E0D8D0E9AE13",
"A. c #ED91D359AFA3",
"S. c #EB32DADFAE18",
"D. c #E5BDCCB7B3F5",
"F. c #E923D032B6EF",
"G. c #E58CCCB7BA7A",
"H. c #E41BD228B2E9",
"J. c #E96FD5D8B6AD",
"K. c #EA6DD527BE69",
"L. c #E6C9D872B9EE",
"P. c #821FA416C64E",
"I. c #8425A83DC48E",
"U. c #8CD6A961C50F",
"Y. c #87E0A4D4CB41",
"T. c #88DCACD8CBF3",
"R. c #90BCB6E3C875",
"E. c #9055B799D80C",
"W. c #93DCBB15D374",
"Q. c #992AB925D5AE",
"!. c #9A32B212D97F",
"~. c #9914BE25DF7E",
"^. c #B8D1AF6DC16C",
"/. c #AC49BC6FCEA4",
"(. c #B212BA43CC71",
"). c #9E24C383D0EE",
"_. c #943DC3F7DD3C",
"`. c #B65BC1F1CEA0",
"'. c #A0F3C705D4A8",
"]. c #BD30CBBBD3C7",
"[. c #B51DC49BD862",
"{. c #AC58C642E56E",
"}. c #ABB2C9D6E4AF",
"|. c #AB26C7D3E927",
" X c #AFFECB41E95F",
".X c #B65AD639E5EE",
"XX c #B3ACD24EEBB5",
"oX c #BF4DD81AEB03",
"OX c #BE67DAFFF2E5",
"+X c #CADFC7B8C266",
"@X c #DEA5D312C337",
"#X c #C3D9CC47D504",
"$X c #D82FD8D5DB88",
"%X c #E00FE006DAB8",
"&X c #E125CCF8C280",
"*X c #E6BADE4AC074",
"=X c #EC8CDB6FC3CF",
"-X c #F568DF73CEFD",
";X c #F3F5E2EBC384",
":X c #F5EFE66BCD0D",
">X c #F6D9E419D206",
",X c #F6DEEA90D3BB",
"<X c #FB4FEE10D251",
"1X c #F44DEC07DE74",
"2X c #FACDEE5FDB65",
"3X c #FE3EF31FDC6C",
"4X c #D32CCC81E5F6",
"5X c #C7E2DCC4E4BD",
"6X c #CA81DE97E68E",
"7X c #C54FDA3BEEE8",
"8X c #C4F3DDA5F297",
"9X c #CD20E0C3ECF2",
"0X c #C3E1E794F786",
"qX c #CCB1E4BFF5D2",
"wX c #CF54EB46F561",
"eX c #D430EAF8F832",
"rX c #DC23EC3BF6EA",
"tX c #D56CECDEFA7D",
"yX c #D9F2EF1BF9EC",
"uX c #DE2EF331FD41",
"iX c #E629E601E837",
"pX c #E8ACE836E7E5",
"aX c #E9D4E93FE82F",
"sX c #E6FAEB34EBFC",
"dX c #EB1EEB51ECEC",
"fX c #F12BE5F7E1C9",
"gX c #F336EBF7E3DF",
"hX c #F656F0EEE284",
"jX c #FF45F5BAE462",
"kX c #FFFFF932E749",
"lX c #F1BDF18CEC5C",
"zX c #FFBFFACCEBD3",
"xX c #EDBFE247F178",
"cX c #E23DEDBBF863",
"vX c #ED53F2C3F5E4",
"bX c #E309F691FE7F",
"nX c #EC1BF73DFCC5",
"mX c #ECAFFA07FF29",
"MX c #F49DF637F807",
"NX c #FB95F5D3F388",
"BX c #FE71FB9FF457",
"VX c #F641FEA9FFBB",
"CX c #FFD7FFF5FFE9",
/* pixels */
"CXCXCXCXCXCXCXCXCXCXCXCXCXCXCXCXCXCXCXCXCXCXCXCXCXCXCXCXCXCXCXCXCXCXCXCXCXCXCXCXCXCXCXCXCXCXCXCXCXCXCXCXCXCXCXCXCXCXCXCXCXCXCXCXCXCXCXCXCXCXCXCXCXCXCXCXCXCXCXCXCXCXCXCXCXCXCXCXCXCXCXCXCXCXCXCX",
"CXCXCXCXCXCXlXVXCXCXCXCXCXCXCXCXCXCXCXCXhXMXCXCXCXCXCXCXCXCXCXCXCXCXCXCXCXCXCXCXCXCXCXCXCXCXCXCXCXCXCXCXCXCXCXCXCXCXCXCXCXCXCXNXvXCXCXCXCXCXCXCXCXCXCXCXCXNXxXCXCXCXCXCXCXCXCXCXCXCXCXCXCXCXCXCX",
"CXCXCXCXCXjX-.tXCXCXCXCXCXCXCXCXCXCXCXCXa.R.CXCXCXCXCXCXCXCXCXCXCXCXCXCXCXCXCXCXCXCXCXCXCXCXCXCXCXCXCXCXCXCXCXCXCXCXCXCXCXCXCXC.5.CXCXCXCXCXCXCXCXCXCXCXCX-X( uXCXCXCXCXCXCXCXCXCXCXCXCXCXCXCXCX",
"CXCXCXCXCX3Xm 0XCXCXCXCX1Xw.7.`.nXCXCXCXH.I bXCXCXCXCXCXCXCXCXCXCXCXCXCXCXCXCXCXCXCXCXCXCXCXCXCXCXCXCXCXCXCXCX@X].VXCXCXCXCXCXm. .VXCXCXCXCXCXaX4XCXCXCXCXkXx [.CXCXCXCXCXCXCXCXCXCXCXCXCXCXCXCX",
"CXCXCXCXCX3Xm 0XCXCXCXG.^ r.t.=.` yXCXCXjXk {.CXCXCXCXCXCXCXCXCXCXCXCXCXCXCXCXCXCXCXCXCXCXCXCXCXCXCXCXCXCXCXjX* G mXCXCXCXCXCXm. .CXCXCXaXN.:.9 Q VXCXCXCXCXg.} VXCXCXCXCXCXCXCXCXCXCXCXCXCXCXCX",
"CXCXCXCXCX3Xm 0XCXCX2Xq T.CXCXzXf } VXCXCXp.1.VXCXCXCXCXCXCXCXCXCXCXCXCXCXCXZ.5XCXCXCXCXCXCXCXCXCXCXCXCXCXCXzXq.[.CXCXCXCXCXCXm. .VXCXCXL.&.6.# W VXCXCXCXCX,Xj eXCXCXCXCXCXCXCXCXCXCXCXCXCXCXCX",
"CXCXCXCXCX3Xm 0XCXCXh.> 8XCXCXCXp.< qXCXCX:XK tXCXCXCXCXCXCXCXCXCXCXCXCXCXCXS ).CXCXCXCXCXCXCXCXCXCXCXCXCXCXCXCXCXCXCXCXCXCXCXm. .VXCXCXCXCXkX9 E VXCXCXCXCXBXC E.CXCXCXCXCXCXCXCXCXCXCXCXCXCXCX",
"CXCXCXCXCX3Xm 0XCXCXz 3 uXCXCXCXB.@ _.CXCXBXN W.CXCXCXCXCXCXCXCXCXCXCXCXCXCXS ).CXCXCXCXCXCXCXCXCXCXCXCXCXNXiXVXCXCXCXCXCXCXCXm. .VXCXCXCXCXjX9 E VXCXCXCXCXCXN.R mXCXCXCXCXCXCXCXCXCXCXCXCXCXCX",
"CXCXCXCXCX3Xm 0XCXzXs 5 bXCXCXCXV.. X.CXCXCXM.) nXCXCXCXCXCXCXCXCXCXCXCXCXBXS ).CXCXCXCXCXCXCXCXCXCXCXCX,Xw.$.3.MXCXCXCXCXCXCXm. .VXCXCXCXCXjX9 W VXCXCXCXCXCX3Xh oXCXCXCXCXCXCXCXCXCXCXCXCXCXCX",
"CXCXCXCXCX3Xm 0XCXzXa 5 bXCXCXCXS.o ..CXCXCX3Xj 7XCXCXCXCXCXCXCXCXCXCXCXCXCXS ).CXCXCXCXCXCXCXCXCXCXCXBXj.5Xd.8 tXCXCXCXCXCXCXm. .VXCXCXCXCXjX9 W VXCXCXCXCXCXCXu.o.CXCXCXCXCXCXCXCXCXCXCXCXCXCX",
"CXCXCXCXCX3Xm 0XCXkXa 5 bXCXCXCXA.o ] CXCXCXCXF I.CXCXCXCXCXCXCXCXCXCXCXCXCXD '.CXCXCXCXCXCXCXCXCXCXCX:X(.BXM 6 uXCXCXCXCXCXCXm. .VXCXCXCXCXjX9 W VXCXCXCXCXCXCX=X~ uXCXCXCXCXCXCXCXCXCXCXCXCXCX",
"CXCXCXCXCX3Xm 0XCXzXa 5 bXCXCXCXA.o [ CXCXCXCXK.K bXCXCXCXCXCXCXl.@.+.+.+.+.= t +.+.+.+.#..XCXCXCXCXCXhXsX2X& ' VXCXCXCXCXCXCXm. .CXCXCXCXCXjX9 W VXCXCXCXCXCXCXzXv |.CXCXCXCXCXCXCXCXCXCXCXCXCX",
"CXCXCXCXCX3Xm 0XCXzXs 4 uXCXCXCXB.  X.CXCXCXCXD.! nXCXCXCXCXCXCXG.6.6.6.6.6.w J 6.6.6.6.9.9XCXCXCXCXCXCXCXn.; }.CXCXCXCXCXCXCXm. .VXCXCXCXCXjX9 W VXCXCXCXCXCXCXkX/ |.CXCXCXCXCXCXCXCXCXCXCXCXCX",
"CXCXCXCXCX3Xm 0XCXCXl 1 tXCXCXCXx.X E.CXCXCXBX;.Y.CXCXCXCXCXCXCXCXCXCXCXCXCXS ).CXCXCXCXCXCXCXCXCXCXCXCXBXg 7 bXNXVXCXCXCXCXCXm. .VXCXCXCXCXjX9 W VXCXCXCXCXCXCXJ.P uXCXCXCXCXCXCXCXCXCXCXCXCXCX",
"CXCXCXCXCX3Xm 0XCXCXg.- 8XCXCXCXp., 8XCXCXCX<Xp 0XCXCXCXCXCXCXCXCXCXCXCXCXCXS ).CXCXCXCXCXCXCXCXCXCXCXCX:X% O.BX^.cXCXCXCXCXCXm. .VXCXCXCXCXkX9 W VXCXCXCXCXCXCXA U.CXCXCXCXCXCXCXCXCXCXCXCXCXCX",
"CXCXCXCXCX3Xm 0XCXCX2X0 o.CXCXzXd { CXCXCXCXk.%.MXCXCXCXCXCXCXCXCXCXCXCXCXCXS ).CXCXCXCXCXCXCXCXCXCXCXCXB.2 OX*Xe.MXCXCXCXCXCXm. .CXCXCXCXCX:X$ H nXCXCXCXCXCX3XU 8XCXCXCXCXCXCXCXCXCXCXCXCXCXCX",
"CXCXCXCXCX3Xm 0XCXCXCXH.y /.%X;.T rXCXCXCXBXV ~.CXCXCXCXCXCXCXCXCXCXCXCXCXCXS ).CXCXCXCXCXCXCXCXCXCXCXCX>Xr 2.4.wXCXCXCXCXCXCXm. .VXCXCX=Xb e O : u %.rXCXCXCXh._ mXCXCXCXCXCXCXCXCXCXCXCXCXCXCX",
"CXCXCXCXCX3Xm 0XCXCXCXCXgXz.0.#XnXCXCXCXCX;Xi rXCXCXCXCXCXCXCXCXCXCXCXCXCXCXS ).CXCXCXCXCXCXCXCXCXCXCXCXCXgX$XvXCXCXCXCXCXCXCXm. .VXCXCXNXpXaXdXaXaXdXVXCXCXBXB !.CXCXCXCXCXCXCXCXCXCXCXCXCXCXCX",
"CXCXCXCXCX3Xm 0XCXCXCXCXCXCXCXCXCXCXCXCXCXy.<.CXCXCXCXCXCXCXCXCXCXCXCXCXCXCXZ.6XCXCXCXCXCXCXCXCXCXCXCXCXCXCXCXCXCXCXCXCXCXCXCXm. .VXCXCXCXCXCXCXCXCXCXCXCXCX;XL tXCXCXCXCXCXCXCXCXCXCXCXCXCXCXCX",
"CXCXCXCXCX3Xm 0XCXCXCXCXCXCXCXCXCXCXCXCXjXv XXCXCXCXCXCXCXCXCXCXCXCXCXCXCXCXCXCXCXCXCXCXCXCXCXCXCXCXCXCXCXCXCXCXCXCXCXCXCXCXCXm. .VXCXCXCXCXCXCXCXCXCXCXCXCXp.3.CXCXCXCXCXCXCXCXCXCXCXCXCXCXCXCX",
"CXCXCXCXCX3Xc 0XCXCXCXCXCXCXCXCXCXCXCXCXD.Y bXCXCXCXCXCXCXCXCXCXCXCXCXCXCXCXCXCXCXCXCXCXCXCXCXCXCXCXCXCXCXCXCXCXCXCXCXCXCXCXCXm. .VXCXCXCXCXCXCXCXCXCXCXCXjXk  XCXCXCXCXCXCXCXCXCXCXCXCXCXCXCXCX",
"CXCXCXCXCXjX>.tXCXCXCXCXCXCXCXCXCXCXCXCXb.W.CXCXCXCXCXCXCXCXCXCXCXCXCXCXCXCXCXCXCXCXCXCXCXCXCXCXCXCXCXCXCXCXCXCXCXCXCXCXCXCXCXS.v.CXCXCXCXCXCXCXCXCXCXCXCX>X*.bXCXCXCXCXCXCXCXCXCXCXCXCXCXCXCXCX",
"CXCXCXCXCXCXBXCXCXCXCXCXCXCXCXCXCXCXCXCXNXVXCXCXCXCXCXCXCXCXCXCXCXCXCXCXCXCXCXCXCXCXCXCXCXCXCXCXCXCXCXCXCXCXCXCXCXCXCXCXCXCXCXCXVXCXCXCXCXCXCXCXCXCXCXCXCXCXMXCXCXCXCXCXCXCXCXCXCXCXCXCXCXCXCXCX"
};
