/* XPM */
static char *state__[] = {
/* columns rows colors chars-per-pixel */
"96 23 225 2",
"   c #3BCD126D1590",
".  c #3D0919A41632",
"X  c #3EC414301F88",
"o  c #3F8220D71383",
"O  c #226631C139F4",
"+  c #408923951340",
"@  c #455414C72122",
"#  c #4EA5260E2653",
"$  c #409F39A8314A",
"%  c #5BF25038203B",
"&  c #2FE41D69523B",
"*  c #35B23774410E",
"=  c #3B0628C759C7",
"-  c #2A0D32B95937",
";  c #2B663AA35925",
":  c #32F133C85B77",
">  c #17D13B246AE7",
",  c #2126324969C5",
"<  c #37C24DFC4B97",
"1  c #2F83424A561B",
"2  c #1960478C70A3",
"3  c #19C4559C76B5",
"4  c #1A515D0A7BC8",
"5  c #7C43591144DB",
"6  c #750D5C9C4871",
"7  c #7FF75ECB4862",
"8  c #45814DE26008",
"9  c #51C65E2A664B",
"0  c #5E7C6BDE72A6",
"q  c #7692721E6B66",
"w  c #7C0F6F037B05",
"e  c #791972947899",
"r  c #764E7AD27C84",
"t  c #7ABF79EA7972",
"y  c #8A2B38752DE2",
"u  c #93D352EC2F2A",
"i  c #81B849313C5C",
"p  c #8DFA54C3407E",
"a  c #A6D45EF54C69",
"s  c #8BAF6F744094",
"d  c #934F76BE496A",
"f  c #959D74895B76",
"g  c #A29170E3441D",
"h  c #8FAA6E7E7450",
"j  c #88D17F61713B",
"k  c #924A768C7876",
"l  c #A7DF6A5A70F5",
"z  c #A8B46C1071F6",
"x  c #A4837CE875AB",
"c  c #A9DE899A42B7",
"v  c #AC4F8CAD4B89",
"b  c #9A5A829A6B08",
"n  c #8BC4867B771F",
"m  c #9A909C8A7487",
"M  c #AD3D8F6C6CD6",
"N  c #A2E788FD7131",
"B  c #AE4E89CB7F21",
"V  c #B65689507CF5",
"C  c #A1DD909077CA",
"Z  c #B5B0923C7FBB",
"A  c #C864A2547315",
"S  c #C37CA33B7C10",
"D  c #CFEABB6E7F71",
"F  c #36025F009069",
"G  c #7B3F6E458BEC",
"H  c #6B7574F88F30",
"J  c #6EE17E4D8A01",
"K  c #7C4773C38FD4",
"L  c #72006F7B93B7",
"P  c #79137F6190A9",
"I  c #54EC77ACA465",
"U  c #78137BF0A487",
"Y  c #84856D7087F9",
"T  c #83E1703E8190",
"R  c #82C4799A81BE",
"E  c #7C9E82C78680",
"W  c #6ED0871297D8",
"Q  c #6DD989479EF3",
"!  c #7BCB8B779A77",
"~  c #57BD8A48BBAB",
"^  c #5AA192B5BF20",
"/  c #65E08B9FA399",
"(  c #6DA68B69AB29",
")  c #691F921EAE4E",
"_  c #7F319613A21C",
"`  c #7EC99DFDB073",
"'  c #58BE9591C076",
"]  c #6167AA6ACAD9",
"[  c #867E867C867B",
"{  c #9A1485A68322",
"}  c #88948E0E9165",
"|  c #83A1869E9E52",
" . c #96AD86E79F4F",
".. c #99CF98079658",
"X. c #9FEB9DF09665",
"o. c #B4D88FE58863",
"O. c #AAEB9294847D",
"+. c #B4D484469144",
"@. c #BE688DF89EA2",
"#. c #9D2DA531941E",
"$. c #B89FA04A8EB7",
"%. c #AD7DA3F790F4",
"&. c #81428F8FA4E3",
"*. c #8410913FB7E1",
"=. c #864998E7B48A",
"-. c #A8278E77A99C",
";. c #9ED7A778A9E2",
":. c #9A27A4A3BE7D",
">. c #A329A311A311",
",. c #A801A134ADFA",
"<. c #A511A905AD5D",
"1. c #A91DA980AB7F",
"2. c #BDF6B41BAD1B",
"3. c #AF50AD2DB7A4",
"4. c #AA70B1D6B949",
"5. c #B1BEB824B224",
"6. c #B634B558B8AD",
"7. c #BF36BEC4BEFC",
"8. c #C5EF9EFE8EBD",
"9. c #C365A61783CC",
"0. c #CBB0ACA38C34",
"q. c #D2DAAE978A95",
"w. c #C6E5AD5A9B4E",
"e. c #D257B366930D",
"r. c #D68CBFE296D7",
"t. c #D0A1BD5E9EF1",
"y. c #D87DB8F19A0F",
"u. c #C968BD56AA62",
"i. c #DA06BA63A430",
"p. c #D530B8B0AEBE",
"a. c #C80ABF16B737",
"s. c #E4CBBD74A581",
"d. c #E812BEBFA9DE",
"f. c #D2E0C32A9E21",
"g. c #DD98C2FFA376",
"h. c #DC32C3A7AA05",
"j. c #D8F4C99BB0D9",
"k. c #D8BFCD45BEC1",
"l. c #E780CECAA7C9",
"z. c #EB20C489AC83",
"x. c #EB9CC8BEADC6",
"c. c #ED8FD33EAF8B",
"v. c #E528CC5FB48B",
"b. c #E970CFA9B481",
"n. c #E49FCC9DBA33",
"m. c #E583D1A9B625",
"M. c #EA77D510BE64",
"N. c #EC10DB9ABC54",
"B. c #839EA5BCC52B",
"V. c #8816A4FFCA6D",
"C. c #85DCAC94C9AB",
"Z. c #89F5AC27CA9F",
"A. c #9A41A8CDC8B7",
"S. c #9226B7A7C91A",
"D. c #9D52B055CC35",
"F. c #93F6BC14D422",
"G. c #996EB8E5D593",
"H. c #93E7BEA8D9FB",
"J. c #991DBDF2DF3C",
"K. c #A1ABAB50C7D2",
"L. c #A382B5B0C36D",
"P. c #AC36BE33CDFF",
"I. c #B495BD0DCBBC",
"U. c #944EC3E9DD11",
"Y. c #B64EC1DDCEA9",
"T. c #AA81C535DC60",
"R. c #B361C7B1DCA6",
"E. c #9C43D3FCEBA6",
"W. c #AA0AC36AE815",
"Q. c #ADEED41FEB02",
"!. c #B3C7D24BEBCE",
"~. c #BB34D4C4ED7A",
"^. c #BA93E06FF385",
"/. c #CC70CB58C81E",
"(. c #D78FD32ECC7F",
"). c #C3E1CC4CD507",
"_. c #D8E9D84DD8ED",
"`. c #DE9EE026DB2F",
"'. c #F323DF61C1F6",
"]. c #ED32DEA5D314",
"[. c #F8B6E98EC5E3",
"{. c #F635E7DDCF00",
"}. c #F7DDE94ED4CC",
"|. c #FB31EDC8D1D5",
" X c #F830E6A5DE3E",
".X c #F477E9ECDCBC",
"XX c #FAEAEE22DA16",
"oX c #FD1FF37BDE36",
"OX c #CEAFD055EBF3",
"+X c #C60DDBFBED03",
"@X c #CA5CE015EC72",
"#X c #C2C7DD86F350",
"$X c #D5CDE42DEDCC",
"%X c #C6BEE15EF4BF",
"&X c #CB21E3B9F602",
"*X c #D854E7FFF27A",
"=X c #D451EB7AF7E3",
"-X c #DA6CED70F65F",
";X c #D5B7E779F8AB",
":X c #D6FDEC6EFA47",
">X c #DB19EE6DFA84",
",X c #DC6CF2FCFD19",
"<X c #E7FDE629E5FE",
"1X c #ECC1EB75E587",
"2X c #E7FCE847E8AF",
"3X c #E840E94AE9DF",
"4X c #ECD8EB52EB17",
"5X c #F296EBB7E4AB",
"6X c #F2AEEB9CEFBD",
"7X c #F751F10CE42D",
"8X c #FDB7F51AE3C0",
"9X c #F834F1E0ECDB",
"0X c #FC53F659EB52",
"qX c #FFD9FB37ECA6",
"wX c #E485E87BF139",
"eX c #E077EE25FABD",
"rX c #E544F65CFF2F",
"tX c #EC98F6B9FCFB",
"yX c #EDB4FA00FF0E",
"uX c #F3C4F5D2F547",
"iX c #F9BBF775F826",
"pX c #FFBAFE3CF446",
"aX c #F299F7F4FC23",
"sX c #F522FC44FE91",
"dX c #FFEEFFF9FFEB",
/* pixels */
"dXdXdXdXdXdXdXdXdXdXdXdXdXdXdXdXdXdXdXdXdXdXdXdXdXdXdXdXdXdXdXdXdXdXdXdXdXdXdXdXdXdXdXdXdXdXdXdXdXdXdXdXdXdXdXdXdXdXdXdXdXdXdXdXdXdXdXdXdXdXdXdXdXdXdXdXdXdXdXdXdXdXdXdXdXdXdXdXdXdXdXdXdXdXdXdX",
"dXdXdXdXdXdX9XaXdXdXdXdXdXdXdXdXdXdXdXdX7XuXdXdXdXdXdXdXdXdXdXdXdXdXdXdXdXdXdXdXdXdXdXdXdXdXdXdXdXdXdXdXdXdXdXdXdXdXdXdXdXdXdXdX6XsXdXdXdXdXdXdXdXdXdXdXdXpX1XdXdXdXdXdXdXdXdXdXdXdXdXdXdXdXdXdX",
"dXdXdXdXdXpX,.!.dXdXdXdXdXdXdXdXdXdXdXdXD S.dXdXdXdXdXdXdXdXdXdXdXdXdXdXdXdXdXdXdXdXdXdXdXdXdXdXdXdXdXdXdXdXdXdXdXdXdXdXdXdXdX8X+.>XdXdXdXdXdXdXdXdXdXdXdXoXm &XdXdXdXdXdXdXdXdXdXdXdXdXdXdXdXdX",
"dXdXdXdXdXpX .W.dXdXdXdX.X2.1.Y.yXdXdXdXm.H rXdXdXdXdXdXdXdXdXdXdXdXdXdXdXdXdXdXdXdXdXdXdXdXdXdXdXdXdXdXdXdXdX].I.aXdXdXdXdXdX8Xl ;XdXdXdXdXdX7X(.sXdXdXdXpXO.Z.dXdXdXdXdXdXdXdXdXdXdXdXdXdXdXdX",
"dXdXdXdXdXpX .W.dXdXdXn.R 4.7.%.! >XdXdXqXk W.dXdXdXdXdXdXdXdXdXdXdXdXdXdXdXdXdXdXdXdXdXdXdXdXdXdXdXdXdXdXdXpXg , :XdXdXdXdXdX8Xz ;XdXdX0X/.2.6 9 rXdXdXdXdXb.L rXdXdXdXdXdXdXdXdXdXdXdXdXdXdXdX",
"dXdXdXdXdXpX .W.dXdXXX7 Z.dXdXqXf ) sXdXpXq.=.sXdXdXdXdXdXdXdXdXdXdXdXdXdXdXdXdXdXdXdXdXdXdXdXdXdXdXdXdXdXdXdXt.L.sXdXdXdXdXdX8Xz ;XdXdX.X..;.i 8 rXdXdXdXdX8Xb Q.dXdXdXdXdXdXdXdXdXdXdXdXdXdXdX",
"dXdXdXdXdXpX .W.dXdXy.= #XdXdXdX0.: &XdXdX{.G =XdXdXdXdXdXdXdXdXdXdXdXdXdXdXdXdXdXdXdXdXdXdXdXdXdXdXdXdXdXdXdXdXdXdXdXdXdXdXdX8Xz ;XdXdXdXdXdXa 8 rXdXdXdXdXdXw.*.dXdXdXdXdXdXdXdXdXdXdXdXdXdXdX",
"dXdXdXdXdXpX .W.dXdXv 2 ,XdXdXdXz.@ U.dXdXpXM F.dXdXdXdXdXdXdXdXdXdXdXdXdXdXdXdXdXdXdXdXdXdXdXdXdXdXdXdXdXpX<XaXdXdXdXdXdXdXdX8Xz ;XdXdXdXdXpXa 8 rXdXdXdXdXdX'.t =XdXdXdXdXdXdXdXdXdXdXdXdXdXdX",
"dXdXdXdXdXpX .W.dXqXu 4 ,XdXdXdXx.. ] dXdXdXh.W yXdXdXdXdXdXdXdXdXdXdXdXdXdXdXdXdXdXdXdXdXdXdXdXdXdXdXdX9X5.%.&.rXdXdXdXdXdXdX8Xz ;XdXdXdXdXpXa 8 rXdXdXdXdXdXpXN H.dXdXdXdXdXdXdXdXdXdXdXdXdXdX",
"dXdXdXdXdXpX .W.dXqXy 4 rXdXdXdXc.+ ^ dXdXdX7Xh +XdXdXdXdXdXdXdXdXdXdXdXdXdXdXdXdXdXdXdXdXdXdXdXdXdXdXdXj.R.'.< E.dXdXdXdXdXdX8Xz ;XdXdXdXdXpXa 8 rXdXdXdXdXdXdXh.U yXdXdXdXdXdXdXdXdXdXdXdXdXdX",
"dXdXdXdXdXpX .W.dXqXy 4 rXdXdXdXc.+ ~ sXdXdXdXS B.dXdXdXdXdXdXdXdXdXdXdXdXdXdXdXdXdXdXdXdXdXdXdXdXdXdX0X6.aXq.O ^.dXdXdXdXdXdX8Xz ;XdXdXdXdXpXa 8 rXdXdXdXdXdXdXXXj #XdXdXdXdXdXdXdXdXdXdXdXdXdX",
"dXdXdXdXdXpX .W.dXqXy 4 rXdXdXdXc.o ^ dXdXdXdXM.G rXdXdXdXdXdXdXdXu.[ [ [ [ [ [ [ [ [ [ } @XdXdXdXdXdX0X*XqXs F yXdXdXdXdXdXdXoXz ;XdXdXdXdXpXa 8 rXdXdXdXdXdXdXdXo.A.dXdXdXdXdXdXdXdXdXdXdXdXdX",
"dXdXdXdXdXpX .W.dXqXu 3 ,XdXdXdXz.  ] dXdXdXdXb.Y rXdXdXdXdXdXdXpXk.>.>.>.>.>.>.>.>.>.>.1.*XdXdXdXdXdXdXdX'.# C.dXdXdXdXdXdXdX8Xz ;XdXdXdXdXpXa 8 rXdXdXdXdXdXdXpXV K.dXdXdXdXdXdXdXdXdXdXdXdXdX",
"dXdXdXdXdXpX .W.dXpXc > :XdXdXdXs.X U.dXdXdXpXo.V.dXdXdXdXdXdXdXdXdXdXdXdXdXdXdXdXdXdXdXdXdXdXdXdXdXdXdXdXA ; %XiXiXdXdXdXdXdX8Xz ;XdXdXdXdXpXa 8 rXdXdXdXdXdXdX}.w +XdXdXdXdXdXdXdXdXdXdXdXdXdX",
"dXdXdXdXdXpX .W.dXdXe.& ^.dXdXdX0.- &XdXdXdX|.r %XdXdXdXdXdXdXdXdXdXdXdXdXdXdXdXdXdXdXdXdXdXdXdXdXdXdXdX8X5 I iXp.$XdXdXdXdXdX8Xz ;XdXdXdXdXpXa 8 rXdXdXdXdXdXdXf.( sXdXdXdXdXdXdXdXdXdXdXdXdXdX",
"dXdXdXdXdXpX .W.dXdX X6 B.dXdXqXd / sXdXdXdXi.| aXdXdXdXdXdXdXdXdXdXdXdXdXdXdXdXdXdXdXdXdXdXdXdXdXdXdXdX[.% U. X:.rXdXdXdXdXdX8Xl ;XdXdXdXdX0Xp 1 =XdXdXdXdXdXpXx T.dXdXdXdXdXdXdXdXdXdXdXdXdXdX",
"dXdXdXdXdXpX .W.dXdXdXm.w P.`.$.P -XdXdXdXpXC J.dXdXdXdXdXdXdXdXdXdXdXdXdXdXdXdXdXdXdXdXdXdXdXdXdXdXdXdX8Xf _ -.OXdXdXdXdXdXdX8Xz ;XdXdX.X{ q $ O 0 E +XdXdXdXN.J >XdXdXdXdXdXdXdXdXdXdXdXdXdXdX",
"dXdXdXdXdXpX .W.dXdXdXdX5Xa.1.).tXdXdXdXdXN.e >XdXdXdXdXdXdXdXdXdXdXdXdXdXdXdXdXdXdXdXdXdXdXdXdXdXdXdXdXdX9X_.3XdXdXdXdXdXdXdX8Xz ;XdXdXpX4X2X4X4X2X2XsXdXdXdX9.=.dXdXdXdXdXdXdXdXdXdXdXdXdXdXdX",
"dXdXdXdXdXpX .W.dXdXdXdXdXdXdXdXdXdXdXdXdX8.=.dXdXdXdXdXdXdXdXdXdXdXdXdXdXdXdXdXdXdXdXdXdXdXdXdXdXdXdXdXdXdXdXdXdXdXdXdXdXdXdX8Xz ;XdXdXdXdXdXdXdXdXdXdXdXdX8Xh ~.dXdXdXdXdXdXdXdXdXdXdXdXdXdXdX",
"dXdXdXdXdXpX .W.dXdXdXdXdXdXdXdXdXdXdXdX8Xn !.dXdXdXdXdXdXdXdXdXdXdXdXdXdXdXdXdXdXdXdXdXdXdXdXdXdXdXdXdXdXdXdXdXdXdXdXdXdXdXdX8Xz ;XdXdXdXdXdXdXdXdXdXdXdXdXl.Q yXdXdXdXdXdXdXdXdXdXdXdXdXdXdXdX",
"dXdXdXdXdXpX .W.dXdXdXdXdXdXdXdXdXdXdXdXv.K rXdXdXdXdXdXdXdXdXdXdXdXdXdXdXdXdXdXdXdXdXdXdXdXdXdXdXdXdXdXdXdXdXdXdXdXdXdXdXdXdX8Xl ;XdXdXdXdXdXdXdXdXdXdXdXpXB D.dXdXdXdXdXdXdXdXdXdXdXdXdXdXdXdX",
"dXdXdXdXdXpX3.~.dXdXdXdXdXdXdXdXdXdXdXdXf.F.dXdXdXdXdXdXdXdXdXdXdXdXdXdXdXdXdXdXdXdXdXdXdXdXdXdXdXdXdXdXdXdXdXdXdXdXdXdXdXdXdX0X@.>XdXdXdXdXdXdXdXdXdXdXdX8X#.&XdXdXdXdXdXdXdXdXdXdXdXdXdXdXdXdX",
"dXdXdXdXdXdXiXdXdXdXdXdXdXdXdXdXdXdXdXdXiXsXdXdXdXdXdXdXdXdXdXdXdXdXdXdXdXdXdXdXdXdXdXdXdXdXdXdXdXdXdXdXdXdXdXdXdXdXdXdXdXdXdXdXuXdXdXdXdXdXdXdXdXdXdXdXdXdXuXdXdXdXdXdXdXdXdXdXdXdXdXdXdXdXdXdX"
};
