/* XPM */
static char *state__[] = {
/* columns rows colors chars-per-pixel */
"96 23 127 2",
"   c #2DFF11A215F6",
".  c #39AA15741A5E",
"X  c #2262260027C6",
"o  c #445117971B90",
"O  c #459517D71BCC",
"+  c #401D346D2C20",
"@  c #5DD255114970",
"#  c #410057006200",
"$  c #7C8C795D76FF",
"%  c #796872BF78DB",
"&  c #778779537A51",
"*  c #76577B047C4A",
"=  c #84236FE37FF2",
"-  c #928476ED78D3",
";  c #8B9086C6774B",
":  c #9D108D6E7AE9",
">  c #AC718E836C9E",
",  c #A4E78C647F76",
"<  c #A21290C07757",
"1  c #C40FA4187C97",
"2  c #79406DB9893F",
"3  c #7C586F0D8D82",
"4  c #6B3C74F68E53",
"5  c #7CD673F48F58",
"6  c #84006D5A8881",
"7  c #6EC7876097A9",
"8  c #7EE29E1CB057",
"9  c #84AE87739ED2",
"0  c #954085D99E32",
"q  c #961086599ED3",
"w  c #96DD87069F6A",
"e  c #922398369FF0",
"r  c #B59E91CD800B",
"t  c #870E9829B7A5",
"y  c #A7FAA0F6AD95",
"u  c #B9D4B1F3A753",
"i  c #AF1EAD07B7DD",
"p  c #C6289E268DA5",
"a  c #CFE4BBFE80AA",
"s  c #D2EDB0538C3A",
"d  c #C359AA059F76",
"f  c #D27BAEAA93AA",
"g  c #DA1EBABAA51B",
"h  c #C239BF53BC68",
"j  c #E476BC93A46E",
"k  c #E5A0BD6FA578",
"l  c #E76BBEC2A606",
"z  c #D2AEC2C79D98",
"x  c #DD7AC3F1A453",
"c  c #E55ECD2EB42F",
"v  c #E8FCCFBBB5FA",
"b  c #E68FD28BB75D",
"n  c #EA56D521BE01",
"m  c #8451ABACC5FC",
"M  c #8784A48ECAC8",
"N  c #904FB6ACC82C",
"B  c #9E46B558C2B9",
"V  c #903BBB4AD413",
"C  c #9395BB83D354",
"Z  c #98ECB93FD5B6",
"A  c #97E0BE31DF55",
"S  c #AFAAC529E382",
"D  c #A8F6C31FE814",
"F  c #A987C35BE837",
"G  c #AA40C3A7E860",
"H  c #A9E4CBFAE1C6",
"J  c #AB7BCD0CE2A4",
"K  c #AF51CCA1E0B0",
"L  c #B2F9D2BDEC3F",
"P  c #B987D161ECA1",
"I  c #BF0AD73FEE97",
"U  c #DDAAD9D3D407",
"Y  c #E0F4D502C5E0",
"T  c #F38BE063C058",
"R  c #F610E73ACE41",
"E  c #FB45EE02D33C",
"W  c #FC92F234DDC1",
"Q  c #C4DADA5AEEF0",
"!  c #C5C5E0D2F353",
"~  c #D7D6EC76F9A7",
"^  c #D91FEF4BFABA",
"/  c #E803E7D4E7DF",
"(  c #EB59E9F9E949",
")  c #E98DEA18EAD2",
"_  c #ED42ED06ECEA",
"`  c #F4F9F052EE67",
"'  c #F65BF101E25C",
"]  c #FE34F57BE2EB",
"[  c #FE8CF743E84F",
"{  c #E606EE25F3AE",
"}  c #EE38F262F4D3",
"|  c #E1B8F4FBFD9E",
" . c #E6F0F6DDFEB7",
".. c #E92EF80AFF77",
"X. c #E8B8F8DAFF61",
"o. c #EB0FFA2AFFD0",
"O. c #F174F1E6F19A",
"+. c #F18EF6F9F809",
"@. c #FFDDFC30F21C",
"#. c #FFF8FB83F418",
"$. c #FFFFFE87F365",
"%. c #FB5FF8C0F55D",
"&. c #FFF4FD60F48B",
"*. c #FFFFFE7AF4E3",
"=. c #FFFFFD95F6C9",
"-. c #FFFFFEB2F67C",
";. c #F4EAF947FCE5",
":. c #F197FC97FFC6",
">. c #F830FCC8FD9A",
",. c #F7CFFD99FFFC",
"<. c #F84BFE9DFFFF",
"1. c #F9F0FA27F952",
"2. c #FFDDFDB4F922",
"3. c #FFFFFF00F902",
"4. c #FFFFFE0EFA9F",
"5. c #FEACFD89FB8B",
"6. c #FBFDFD80FE56",
"7. c #FBA7FD00FE94",
"8. c #F9F7FF4EFFFF",
"9. c #FFFFFFF7FC90",
"0. c #FFFFFFBFFDEF",
"q. c #FD0DFFD5FFFF",
"w. c #FE01FFF4FFFF",
"e. c #FF2DFF4AFF4A",
"r. c #FFFFFFFCFEEB",
"t. c #FECFFFC8FFFF",
"y. c #FFFFFFFFFFFF",
/* pixels */
"y.y.y.y.y.y.y.y.y.y.y.y.y.y.y.y.y.y.y.y.y.y.y.y.y.y.y.y.y.y.y.y.y.y.y.y.y.y.y.y.y.y.y.y.y.y.y.y.y.y.y.y.y.y.y.y.y.y.y.y.y.y.y.y.y.y.y.y.y.y.y.y.y.y.y.y.y.y.y.y.y.y.y.y.y.y.y.y.y.y.y.y.y.y.y.y.",
"y.y.y.y.y.y.O.;.y.y.y.y.y.y.y.y.y.y.y.y.' +.y.y.y.y.y.y.y.y.y.y.y.y.y.y.y.y.y.y.y.y.y.y.y.y.y.y.y.y.y.y.y.y.y.y.y.y.y.y.y.y.y.y.y.y.y.y.y.y.y.y.y.y.y.y.y.y.y.y.y.y.y.y.y.y.y.y.y.y.y.y.y.y.y.y.",
"y.y.y.y.y.&.y P y.y.y.y.y.y.y.y.y.y.y.y.1 N y.y.y.y.y.y.y.y.y.y.y.y.y.y.y.y.y.y.y.y.y.y.y.y.y.y.y.y.y.y.y.y.y.y.y.y.y.y.y.y.y.y.y.y.y.y.y.y.y.y.y.y.y.y.y.y.y.y.y.y.y.y.y.y.y.y.y.y.y.y.y.y.y.y.",
"y.y.y.y.y.$.w G y.y.y.y.y.&.Y { y.y.y.y.n 4  .5.y.y.y.y.y.y.y.y.y.y.y.y.y.y.y.y.y.y.y.y.y.y.y.y.y.y.y.y.y.y.y.y.y.y.y.y.y.y.y.y.y.y.y.y.y.y.y.y.y.y.y.y.y.y.y.y.y.y.y.y.y.y.y.y.y.y.y.y.y.y.y.y.",
"y.y.y.y.y.$.w G y.y.&.U h : X P y.y.y.y.[ - S y.y.y.y.y.y.y.y.y.y.y.y.y.y.y.y.y.y.y.y.y.y.y.y.y.y.y.y.y.y.y.y.y.y.y.y.y.y.y.y.y.y.y.y.y.y.y.y.y.y.y.y.y.y.y.y.y.y.y.y.y.y.y.y.y.y.y.y.y.y.y.y.y.",
"y.y.y.y.y.$.w G y.y.#.u e , o K y.y.y.y.y.s 8 ,.y.y.y.y.y.y.y.y.y.y.y.y.y.y.y.y.y.y.y.y.y.y.y.y.y.y.y.y.y.y.y.y.y.y.y.y.y.y.y.y.y.y.y.y.y.y.y.y.y.y.y.y.y.y.y.y.y.y.y.y.y.y.y.y.y.y.y.y.y.y.y.y.",
"y.y.y.y.y.$.w G y.y.y.y.y.x O H y.y.y.y.y.R 2 ~ y.y.y.y.y.y.y.y.y.y.y.y.y.y.y.y.y.y.y.y.y.y.y.y.y.y.y.y.y.y.y.y.y.y.y.y.y.y.y.y.y.y.y.y.y.y.y.y.y.y.y.y.y.y.y.y.y.y.y.y.y.y.y.y.y.y.y.y.y.y.y.y.",
"y.y.y.y.y.$.w G y.y.y.y.y.j o H y.y.y.y.y.$.> Z y.y.y.y.y.y.y.y.y.y.y.y.y.y.y.y.y.y.y.y.y.y.y.y.y.y.y.y.y.y.y.y.y.y.y.y.y.y.y.y.y.y.y.y.y.y.y.y.y.y.y.y.y.y.y.y.y.y.y.y.y.y.y.y.y.y.y.y.y.y.y.y.",
"y.y.y.y.y.$.w G y.y.y.y.y.j o H y.y.y.y.y.y.x 7 X.y.y.y.y.y.y.y.y.y.y.y.y.y.y.y.y.y.y.y.y.y.y.y.y.y.y.y.y.y.y.y.y.y.y.y.y.y.y.y.y.y.y.y.y.y.y.y.y.y.y.y.y.y.y.y.y.y.y.y.y.y.y.y.y.y.y.y.y.y.y.y.",
"y.y.y.y.y.$.w G y.y.y.y.y.j O H y.y.y.y.y.y.W = Q y.y.y.y.y.y.y.y.y.y.y.y.y.y.y.y.y.y.y.y.y.y.y.y.y.y.y.y.y.y.y.y.y.y.y.y.y.y.y.y.y.y.y.y.y.y.y.y.y.y.y.y.y.y.y.y.y.y.y.y.y.y.y.y.y.y.y.y.y.y.y.",
"y.y.y.y.y.$.w G y.y.y.y.y.j o H y.y.y.y.y.y.5.1 m y.y.y.y.y.y.y.y.y.y.y.y.y.y.y.y.y.y.y.y.y.y.y.y.y.y.y.y.y.y.y.y.y.y.y.y.y.y.y.y.y.y.y.y.y.y.y.y.y.y.y.y.y.y.y.y.y.y.y.y.y.y.y.y.y.y.y.y.y.y.y.",
"y.y.y.y.y.$.w G y.y.y.y.y.j o H y.y.y.y.y.y.y.n 3  .y.y.y.y.y.y.y.y.y.y.y.y.y.y.y.y.y.y.y.y.y.y.y.y.y.y.y.y.y.y.y.y.y.y.y.y.y.y.y.y.y.y.y.y.y.y.y.y.y.y.y.y.y.y.y.y.y.y.y.y.y.y.y.y.y.y.y.y.y.y.",
"y.y.y.y.y.$.w G y.y.y.y.y.j o H y.y.y.y.y.y.y.v 6 X.y.y.y.y.y.y.y.y.y.y.y.y.y.y.y.y.y.y.y.y.y.y.y.y.y.y.y.y.y.y.y.y.y.y.y.y.y.y.y.y.y.y.y.y.y.y.y.y.y.y.y.y.y.y.y.y.y.y.y.y.y.y.y.y.y.y.y.y.y.y.",
"y.y.y.y.y.$.w G y.y.y.y.y.j o H y.y.y.y.y.y.5., M 7.y.y.y.y.y.y.y.y.y.y.y.y.y.y.y.y.y.y.y.y.y.y.y.y.y.y.y.y.y.y.y.y.y.y.y.y.y.y.y.y.y.y.y.y.y.y.y.y.y.y.y.y.y.y.y.y.y.y.y.y.y.y.y.y.y.y.y.y.y.y.",
"y.y.y.y.y.$.w G y.y.y.y.y.j O J y.y.y.y.y.y.E & ! y.y.y.y.y.y.y.y.y.y.y.y.y.y.y.y.y.y.y.y.y.y.y.y.y.y.y.y.y.y.y.y.y.y.y.y.y.y.y.y.y.y.y.y.y.y.y.y.y.y.y.y.y.y.y.y.y.y.y.y.y.y.y.y.y.y.y.y.y.y.y.",
"y.y.y.y.y.$.w G y.y.y.y.5.f   V 6.y.y.y.y.y.g 9 :.y.y.y.y.y.y.y.y.y.y.y.y.y.y.y.y.y.y.y.y.y.y.y.y.y.y.y.y.y.y.y.y.y.y.y.y.y.y.y.y.y.y.y.y.y.y.y.y.y.y.y.y.y.y.y.y.y.y.y.y.y.y.y.y.y.y.y.y.y.y.y.",
"y.y.y.y.y.$.w G y.y.&.d $ @ X # & B ,.y.y.$.< A y.y.y.y.y.y.y.y.y.y.y.y.y.y.y.y.y.y.y.y.y.y.y.y.y.y.y.y.y.y.y.y.y.y.y.y.y.y.y.y.y.y.y.y.y.y.y.y.y.y.y.y.y.y.y.y.y.y.y.y.y.y.y.y.y.y.y.y.y.y.y.y.",
"y.y.y.y.y.$.w G y.y.y.` / ) _ ( / } y.y.y.n % ^ y.y.y.y.y.y.y.y.y.y.y.y.y.y.y.y.y.y.y.y.y.y.y.y.y.y.y.y.y.y.y.y.y.y.y.y.y.y.y.y.y.y.y.y.y.y.y.y.y.y.y.y.y.y.y.y.y.y.y.y.y.y.y.y.y.y.y.y.y.y.y.y.",
"y.y.y.y.y.$.w G y.y.y.y.y.y.y.y.y.y.y.y.y.p t 7.y.y.y.y.y.y.y.y.y.y.y.y.y.y.y.y.y.y.y.y.y.y.y.y.y.y.y.y.y.y.y.y.y.y.y.y.y.y.y.y.y.y.y.y.y.y.y.y.y.y.y.y.y.y.y.y.y.y.y.y.y.y.y.y.y.y.y.y.y.y.y.y.",
"y.y.y.y.y.$.w G y.y.y.y.y.y.y.y.y.y.y.y.] ; L y.y.y.y.y.y.y.y.y.y.y.y.y.y.y.y.y.y.y.y.y.y.y.y.y.y.y.y.y.y.y.y.y.y.y.y.y.y.y.y.y.y.y.y.y.y.y.y.y.y.y.y.y.y.y.y.y.y.y.y.y.y.y.y.y.y.y.y.y.y.y.y.y.",
"y.y.y.y.y.$.w D y.y.y.y.y.y.y.y.y.y.y.y.c 5 X.y.y.y.y.y.y.y.y.y.y.y.y.y.y.y.y.y.y.y.y.y.y.y.y.y.y.y.y.y.y.y.y.y.y.y.y.y.y.y.y.y.y.y.y.y.y.y.y.y.y.y.y.y.y.y.y.y.y.y.y.y.y.y.y.y.y.y.y.y.y.y.y.y.",
"y.y.y.y.y.&.i I y.y.y.y.y.y.y.y.y.y.y.y.z C y.y.y.y.y.y.y.y.y.y.y.y.y.y.y.y.y.y.y.y.y.y.y.y.y.y.y.y.y.y.y.y.y.y.y.y.y.y.y.y.y.y.y.y.y.y.y.y.y.y.y.y.y.y.y.y.y.y.y.y.y.y.y.y.y.y.y.y.y.y.y.y.y.y.",
"y.y.y.y.y.y.1.7.y.y.y.y.y.y.y.y.y.y.y.y.%.,.y.y.y.y.y.y.y.y.y.y.y.y.y.y.y.y.y.y.y.y.y.y.y.y.y.y.y.y.y.y.y.y.y.y.y.y.y.y.y.y.y.y.y.y.y.y.y.y.y.y.y.y.y.y.y.y.y.y.y.y.y.y.y.y.y.y.y.y.y.y.y.y.y.y."
};
