/* XPM */
static char * state_XMINUS_xpm[] = {
"80 23 186 2",
"  	c None",
". 	c #FFFFFF",
"+ 	c #F1F1EC",
"@ 	c #F5FDFF",
"# 	c #F6F0E2",
"$ 	c #F1F6F7",
"% 	c #FBF6EB",
"& 	c #ECF7FD",
"* 	c #F9EFF2",
"= 	c #EDEAF3",
"- 	c #FEF5E3",
"; 	c #A0AD88",
"> 	c #D5EDFA",
", 	c #C7B978",
"' 	c #90B6C8",
") 	c #D2C28F",
"! 	c #9DCBD6",
"~ 	c #E6C0B4",
"{ 	c #9B88A8",
"] 	c #FEF3DC",
"^ 	c #869E6E",
"/ 	c #C3E7F7",
"( 	c #F4EADF",
"_ 	c #BDB0AD",
": 	c #AAA6A5",
"< 	c #B6C1CE",
"[ 	c #EAD5BE",
"} 	c #6D738E",
"| 	c #E3F6FE",
"1 	c #80BFCB",
"2 	c #E7D9DA",
"3 	c #D9D8EE",
"4 	c #FBE8CC",
"5 	c #797873",
"6 	c #CCE3F5",
"7 	c #879F70",
"8 	c #E5CCBA",
"9 	c #837981",
"0 	c #AAB1B9",
"a 	c #BFBEBE",
"b 	c #ADA28C",
"c 	c #7B8B9A",
"d 	c #D9EFFA",
"e 	c #917678",
"f 	c #AFC4E3",
"g 	c #81C0CC",
"h 	c #ECE4D4",
"i 	c #C5C3BF",
"j 	c #453343",
"k 	c #8392CE",
"l 	c #FEFBF5",
"m 	c #B3947D",
"n 	c #83AECE",
"o 	c #FAEDDA",
"p 	c #7F5E48",
"q 	c #88ADCB",
"r 	c #FFFBEC",
"s 	c #94735D",
"t 	c #6992AE",
"u 	c #D2B08B",
"v 	c #7E9DB0",
"w 	c #D6C7A7",
"x 	c #919597",
"y 	c #AAA797",
"z 	c #292137",
"A 	c #7A91CC",
"B 	c #E4D2B3",
"C 	c #7D7492",
"D 	c #D8B89A",
"E 	c #3A285A",
"F 	c #CCAD8C",
"G 	c #32345C",
"H 	c #F7E6CA",
"I 	c #7B6E8B",
"J 	c #362A3D",
"K 	c #8C8676",
"L 	c #B3D2EC",
"M 	c #AC8C4B",
"N 	c #194770",
"O 	c #EBC4AC",
"P 	c #451421",
"Q 	c #94C3DD",
"R 	c #AC8E6C",
"S 	c #9BBAD4",
"T 	c #C69D8E",
"U 	c #8696B8",
"V 	c #93522F",
"W 	c #1A5C7B",
"X 	c #DCF2FD",
"Y 	c #EBC9AE",
"Z 	c #3D1A16",
"` 	c #61AACA",
" .	c #DDC2A3",
"..	c #6E8798",
"+.	c #EBF9FE",
"@.	c #F3DFC2",
"#.	c #797379",
"$.	c #8A382D",
"%.	c #EDD3AF",
"&.	c #402313",
"*.	c #5A92BE",
"=.	c #886F77",
"-.	c #C4D9EF",
";.	c #A29076",
">.	c #96BFDF",
",.	c #EBD7B4",
"'.	c #578ABB",
").	c #C3A27C",
"!.	c #83A6C5",
"~.	c #D9BAA4",
"{.	c #84879F",
"].	c #3F2013",
"^.	c #D6B5AD",
"/.	c #8C8686",
"(.	c #868686",
"_.	c #868B8F",
":.	c #B6D6E5",
"<.	c #747983",
"[.	c #195576",
"}.	c #3B1215",
"|.	c #846D88",
"1.	c #A6A6A6",
"2.	c #A6A9AD",
"3.	c #CDE0EC",
"4.	c #A98942",
"5.	c #173B6B",
"6.	c #E5BDA5",
"7.	c #3E141F",
"8.	c #93BCD4",
"9.	c #87A4CA",
"0.	c #D0B796",
"a.	c #748FA5",
"b.	c #D2B393",
"c.	c #301D53",
"d.	c #C2DDF4",
"e.	c #2A3259",
"f.	c #767A7B",
"g.	c #F8E8CC",
"h.	c #A1816A",
"i.	c #A6C7E1",
"j.	c #7A684A",
"k.	c #937649",
"l.	c #658BA3",
"m.	c #2F2229",
"n.	c #6B84B6",
"o.	c #F8F7FA",
"p.	c #707694",
"q.	c #E0D0AE",
"r.	c #796D7C",
"s.	c #ACBCCE",
"t.	c #E0E0DA",
"u.	c #B8A08E",
"v.	c #797F90",
"w.	c #DAEDF6",
"x.	c #99BEDF",
"y.	c #D8C9AE",
"z.	c #7C7B7A",
"A.	c #6B624F",
"B.	c #2E2922",
"C.	c #3D4750",
"D.	c #727678",
"E.	c #9097B1",
"F.	c #8BA6BA",
"G.	c #F2EBE4",
"H.	c #C4BEB4",
"I.	c #A9A9AB",
"J.	c #C3CCD5",
"K.	c #F0DFBF",
"L.	c #F8F5F1",
"M.	c #E8E7E7",
"N.	c #EAEAEB",
"O.	c #BAD1ED",
"P.	c #8698B7",
"Q.	c #DFCBA9",
"R.	c #6B7D9C",
"S.	c #B48B73",
"T.	c #E6CDB5",
"U.	c #7D738F",
"V.	c #727587",
"W.	c #D2E6F7",
"X.	c #ADB791",
"Y.	c #D2C39C",
"Z.	c #D8CA97",
"`.	c #A9D1D9",
" +	c #E9CEB6",
".+	c #A2A2AB",
". . . . . . . . . . . . . . . . . . . . . . . . . . . . . . . . . . . . . . . . . . . . . . . . . . . . . . . . . . . . . . . . . . . . . . . . . . . . . . . . ",
". . . . . . . + @ . . . . . . . . . . . . # $ . . . . . . . . . . . . . . . . . . . . . . . . . . . . . . . % & . . . . . . . . . . . . * = . . . . . . . . . . ",
". . . . . . - ; > . . . . . . . . . . . . , ' . . . . . . . . . . . . . . . . . . . . . . . . . . . . . . . ) ! . . . . . . . . . . . . ~ { @ . . . . . . . . . ",
". . . . . . ] ^ / . . . . ( _ : < & . . . [ } | . . . . . . . . . . . . . . . . . . . . . . . . . . . . . . , 1 . . . . . . 2 3 . . . . 4 5 6 . . . . . . . . . ",
". . . . . . ] 7 / . . . 8 9 0 a b c d . . % e f . . . . . . . . . . . . . . . . . . . . . . . . . . . . . . , g . . . h i b j k . . . . l m n . . . . . . . . . ",
". . . . . . ] 7 / . . o p q . . r s t @ . . u v @ . . . . . . . . . . . . . . . . . . . . . . . . . . . . . , g . . . w x y z A . . . . . B C | . . . . . . . . ",
". . . . . . ] 7 / . . D E 6 . . . F G 6 . . H I > . . . . . . . . . . . . . . . . . . . . . . . . . . . . . , 1 . . . . . H J A . . . . . - K L . . . . . . . . ",
". . . . . . ] 7 / . . M N > . . . O P Q . . l R S . . . . . . . . . . . . . . . . . . . . . . . . . . . . . , g . . . . . H J A . . . . . . T U . . . . . . . . ",
". . . . . . ] 7 / . r V W X . . . Y Z ` . . .  ...+.. . . . . . . . . . . . . . . . . . . . . . . . . . . . , g . . . . . H J A . . . . . . @.#.d . . . . . . . ",
". . . . . . ] 7 / . r $.W | . . . %.&.*.. . . # =.-.. . . . . . . . . . . . . . . . . . . . . . . . . . . . , g . . . . . H J A . . . . . . l ;.>.. . . . . . . ",
". . . . . . ] 7 / . r $.W | . . . ,.&.'.@ . . . ).!.. . . . . . . . . . . . . . . . . . . . . . . . . . . . , g . . . . . H J A . . . . . . . ~.{.@ . . . . . . ",
". . . . . . ] 7 / . r $.W | . . . %.].*.. . . . [ I | . . . . . . ^./.(.(.(.(.(.(.(.(.(.(._.:.. . . . . . . , g . . . . . H J A . . . . . . . 4 <.6 . . . . . . ",
". . . . . . ] 7 / . r V [.X . . . O }.` . . . . ,.|.+.. . . . . . 8 1.1.1.1.1.1.1.1.1.1.1.2.3.. . . . . . . , g . . . . . H J A l . . . . . . 4 } 6 . . . . . . ",
". . . . . . ] 7 / . l 4.5.d . . . 6.7.8.. . . . m 9.. . . . . . . . . . . . . . . . . . . . . . . . . . . . , g . . . . . H J A . . . . . . . 0.a.@ . . . . . . ",
". . . . . . ] ^ / . . b.c.d.. . . F e.6 . . . 4 f.d.. . . . . . . . . . . . . . . . . . . . . . . . . . . . , 1 . . . . . g.J A . . . . . . r h.i.. . . . . . . ",
". . . . . . ] ^ / . . o j.A . . r k.l.@ . . . ~.{.@ . . . . . . . . . . . . . . . . . . . . . . . . . . . . , 1 . . . . . ,.m.n.o.. . . . . @.p.X . . . . . . . ",
". . . . . . ] 7 / . . . q.r.s.t.u.v.w.. . . l ;.x.. . . . . . . . . . . . . . . . . . . . . . . . . . . . . , g . . . y.z.A.B.C.D.E.+.. . . ).F.. . . . . . . . ",
". . . . . . ] 7 / . . . . G.H.I.J.& . . . . K.#.d . . . . . . . . . . . . . . . . . . . . . . . . . . . . . , g . . . L.M.M.N.N.M.= . . . o =.O.. . . . . . . . ",
". . . . . . ] 7 / . . . . . . . . . . . . . T P.. . . . . . . . . . . . . . . . . . . . . . . . . . . . . . , 1 . . . . . . . . . . . . . Q.R.& . . . . . . . . ",
". . . . . . ] 7 / . . . . . . . . . . . . - K L . . . . . . . . . . . . . . . . . . . . . . . . . . . . . . , 1 . . . . . . . . . . . . l S.S . . . . . . . . . ",
". . . . . . ] ^ / . . . . . . . . . . . . T.U.| . . . . . . . . . . . . . . . . . . . . . . . . . . . . . . , 1 . . . . . . . . . . . . H V.W.. . . . . . . . . ",
". . . . . . - X.> . . . . . . . . . . . . Y.8.. . . . . . . . . . . . . . . . . . . . . . . . . . . . . . . Z.`.. . . . . . . . . . . .  +.+@ . . . . . . . . . ",
". . . . . . . o.. . . . . . . . . . . . . l o.. . . . . . . . . . . . . . . . . . . . . . . . . . . . . . . l @ . . . . . . . . . . . . o.o.. . . . . . . . . . "};
