/* XPM */
static char * state_XPLUS_xpm[] = {
"80 23 194 2",
"  	c None",
". 	c #FFFFFF",
"+ 	c #F1F1EC",
"@ 	c #F5FDFF",
"# 	c #F6F0E2",
"$ 	c #F1F6F7",
"% 	c #FBF6EB",
"& 	c #ECF7FD",
"* 	c #F9EFF2",
"= 	c #EDEAF3",
"- 	c #FEF5E3",
"; 	c #A0AD88",
"> 	c #D5EDFA",
", 	c #C7B978",
"' 	c #90B6C8",
") 	c #D2C28F",
"! 	c #9DCBD6",
"~ 	c #E6C0B4",
"{ 	c #9B88A8",
"] 	c #FEF3DC",
"^ 	c #869E6E",
"/ 	c #C3E7F7",
"( 	c #F4EADF",
"_ 	c #BDB0AD",
": 	c #AAA6A5",
"< 	c #B6C1CE",
"[ 	c #EAD5BE",
"} 	c #6D738E",
"| 	c #E3F6FE",
"1 	c #80BFCB",
"2 	c #E7D9DA",
"3 	c #D9D8EE",
"4 	c #FBE8CC",
"5 	c #797873",
"6 	c #CCE3F5",
"7 	c #879F70",
"8 	c #E5CCBA",
"9 	c #837981",
"0 	c #AAB1B9",
"a 	c #BFBEBE",
"b 	c #ADA28C",
"c 	c #7B8B9A",
"d 	c #D9EFFA",
"e 	c #917678",
"f 	c #AFC4E3",
"g 	c #81C0CC",
"h 	c #ECE4D4",
"i 	c #C5C3BF",
"j 	c #453343",
"k 	c #8392CE",
"l 	c #FEFBF5",
"m 	c #B3947D",
"n 	c #83AECE",
"o 	c #FAEDDA",
"p 	c #7F5E48",
"q 	c #88ADCB",
"r 	c #FFFBEC",
"s 	c #94735D",
"t 	c #6992AE",
"u 	c #D2B08B",
"v 	c #7E9DB0",
"w 	c #DFCBA9",
"x 	c #CADEE6",
"y 	c #D6C7A7",
"z 	c #919597",
"A 	c #AAA797",
"B 	c #292137",
"C 	c #7A91CC",
"D 	c #E4D2B3",
"E 	c #7D7492",
"F 	c #D8B89A",
"G 	c #3A285A",
"H 	c #CCAD8C",
"I 	c #32345C",
"J 	c #F7E6CA",
"K 	c #7B6E8B",
"L 	c #C6AB74",
"M 	c #9EC3D0",
"N 	c #362A3D",
"O 	c #8C8676",
"P 	c #B3D2EC",
"Q 	c #AC8C4B",
"R 	c #194770",
"S 	c #EBC4AC",
"T 	c #451421",
"U 	c #94C3DD",
"V 	c #AC8E6C",
"W 	c #9BBAD4",
"X 	c #C69D8E",
"Y 	c #8696B8",
"Z 	c #93522F",
"` 	c #1A5C7B",
" .	c #DCF2FD",
"..	c #EBC9AE",
"+.	c #3D1A16",
"@.	c #61AACA",
"#.	c #DDC2A3",
"$.	c #6E8798",
"%.	c #EBF9FE",
"&.	c #F3DFC2",
"*.	c #797379",
"=.	c #8A382D",
"-.	c #EDD3AF",
";.	c #402313",
">.	c #5A92BE",
",.	c #886F77",
"'.	c #C4D9EF",
").	c #A29076",
"!.	c #96BFDF",
"~.	c #EBD7B4",
"{.	c #578ABB",
"].	c #C3A27C",
"^.	c #83A6C5",
"/.	c #CAAE77",
"(.	c #A1C7D4",
"_.	c #D9BAA4",
":.	c #84879F",
"<.	c #3F2013",
"[.	c #D6B5AD",
"}.	c #8C8686",
"|.	c #868686",
"1.	c #67593D",
"2.	c #51666D",
"3.	c #868B8F",
"4.	c #B6D6E5",
"5.	c #747983",
"6.	c #195576",
"7.	c #3B1215",
"8.	c #846D88",
"9.	c #A6A6A6",
"0.	c #7A684A",
"a.	c #587A85",
"b.	c #A6A9AD",
"c.	c #CDE0EC",
"d.	c #A98942",
"e.	c #173B6B",
"f.	c #E5BDA5",
"g.	c #3E141F",
"h.	c #93BCD4",
"i.	c #87A4CA",
"j.	c #D0B796",
"k.	c #748FA5",
"l.	c #D2B393",
"m.	c #301D53",
"n.	c #C2DDF4",
"o.	c #2A3259",
"p.	c #767A7B",
"q.	c #F8E8CC",
"r.	c #A1816A",
"s.	c #A6C7E1",
"t.	c #937649",
"u.	c #658BA3",
"v.	c #2F2229",
"w.	c #6B84B6",
"x.	c #F8F7FA",
"y.	c #707694",
"z.	c #E0D0AE",
"A.	c #796D7C",
"B.	c #ACBCCE",
"C.	c #E0E0DA",
"D.	c #B8A08E",
"E.	c #797F90",
"F.	c #DAEDF6",
"G.	c #99BEDF",
"H.	c #D8C9AE",
"I.	c #7C7B7A",
"J.	c #6B624F",
"K.	c #2E2922",
"L.	c #3D4750",
"M.	c #727678",
"N.	c #9097B1",
"O.	c #8BA6BA",
"P.	c #F2EBE4",
"Q.	c #C4BEB4",
"R.	c #A9A9AB",
"S.	c #C3CCD5",
"T.	c #F0DFBF",
"U.	c #F8F5F1",
"V.	c #E8E7E7",
"W.	c #EAEAEB",
"X.	c #BAD1ED",
"Y.	c #8698B7",
"Z.	c #6B7D9C",
"`.	c #B48B73",
" +	c #E6CDB5",
".+	c #7D738F",
"++	c #727587",
"@+	c #D2E6F7",
"#+	c #ADB791",
"$+	c #D2C39C",
"%+	c #D8CA97",
"&+	c #A9D1D9",
"*+	c #E9CEB6",
"=+	c #A2A2AB",
". . . . . . . . . . . . . . . . . . . . . . . . . . . . . . . . . . . . . . . . . . . . . . . . . . . . . . . . . . . . . . . . . . . . . . . . . . . . . . . . ",
". . . . . . . + @ . . . . . . . . . . . . # $ . . . . . . . . . . . . . . . . . . . . . . . . . . . . . . . % & . . . . . . . . . . . . * = . . . . . . . . . . ",
". . . . . . - ; > . . . . . . . . . . . . , ' . . . . . . . . . . . . . . . . . . . . . . . . . . . . . . . ) ! . . . . . . . . . . . . ~ { @ . . . . . . . . . ",
". . . . . . ] ^ / . . . . ( _ : < & . . . [ } | . . . . . . . . . . . . . . . . . . . . . . . . . . . . . . , 1 . . . . . . 2 3 . . . . 4 5 6 . . . . . . . . . ",
". . . . . . ] 7 / . . . 8 9 0 a b c d . . % e f . . . . . . . . . . . . . . . . . . . . . . . . . . . . . . , g . . . h i b j k . . . . l m n . . . . . . . . . ",
". . . . . . ] 7 / . . o p q . . r s t @ . . u v @ . . . . . . . . . . . . . . w x . . . . . . . . . . . . . , g . . . y z A B C . . . . . D E | . . . . . . . . ",
". . . . . . ] 7 / . . F G 6 . . . H I 6 . . J K > . . . . . . . . . . . . . . L M . . . . . . . . . . . . . , 1 . . . . . J N C . . . . . - O P . . . . . . . . ",
". . . . . . ] 7 / . . Q R > . . . S T U . . l V W . . . . . . . . . . . . . . L M . . . . . . . . . . . . . , g . . . . . J N C . . . . . . X Y . . . . . . . . ",
". . . . . . ] 7 / . r Z `  .. . . ..+.@.. . . #.$.%.. . . . . . . . . . . . l L M . . . . . . . . . . . . . , g . . . . . J N C . . . . . . &.*.d . . . . . . . ",
". . . . . . ] 7 / . r =.` | . . . -.;.>.. . . # ,.'.. . . . . . . . . . . . . L M . . . . . . . . . . . . . , g . . . . . J N C . . . . . . l ).!.. . . . . . . ",
". . . . . . ] 7 / . r =.` | . . . ~.;.{.@ . . . ].^.. . . . . . . . . . . . . /.(.. . . . . . . . . . . . . , g . . . . . J N C . . . . . . . _.:.@ . . . . . . ",
". . . . . . ] 7 / . r =.` | . . . -.<.>.. . . . [ K | . . . . . . [.}.|.|.|.|.1.2.|.|.|.|.3.4.. . . . . . . , g . . . . . J N C . . . . . . . 4 5.6 . . . . . . ",
". . . . . . ] 7 / . r Z 6. .. . . S 7.@.. . . . ~.8.%.. . . . . . 8 9.9.9.9.9.0.a.9.9.9.9.b.c.. . . . . . . , g . . . . . J N C l . . . . . . 4 } 6 . . . . . . ",
". . . . . . ] 7 / . l d.e.d . . . f.g.h.. . . . m i.. . . . . . . . . . . . . L M . . . . . . . . . . . . . , g . . . . . J N C . . . . . . . j.k.@ . . . . . . ",
". . . . . . ] ^ / . . l.m.n.. . . H o.6 . . . 4 p.n.. . . . . . . . . . . . . L M . . . . . . . . . . . . . , 1 . . . . . q.N C . . . . . . r r.s.. . . . . . . ",
". . . . . . ] ^ / . . o 0.C . . r t.u.@ . . . _.:.@ . . . . . . . . . . . . . L M . . . . . . . . . . . . . , 1 . . . . . ~.v.w.x.. . . . . &.y. .. . . . . . . ",
". . . . . . ] 7 / . . . z.A.B.C.D.E.F.. . . l ).G.. . . . . . . . . . . . . . L M . . . . . . . . . . . . . , g . . . H.I.J.K.L.M.N.%.. . . ].O.. . . . . . . . ",
". . . . . . ] 7 / . . . . P.Q.R.S.& . . . . T.*.d . . . . . . . . . . . . . . L M . . . . . . . . . . . . . , g . . . U.V.V.W.W.V.= . . . o ,.X.. . . . . . . . ",
". . . . . . ] 7 / . . . . . . . . . . . . . X Y.. . . . . . . . . . . . . . . D x . . . . . . . . . . . . . , 1 . . . . . . . . . . . . . w Z.& . . . . . . . . ",
". . . . . . ] 7 / . . . . . . . . . . . . - O P . . . . . . . . . . . . . . . . . . . . . . . . . . . . . . , 1 . . . . . . . . . . . . l `.W . . . . . . . . . ",
". . . . . . ] ^ / . . . . . . . . . . . .  +.+| . . . . . . . . . . . . . . . . . . . . . . . . . . . . . . , 1 . . . . . . . . . . . . J ++@+. . . . . . . . . ",
". . . . . . - #+> . . . . . . . . . . . . $+h.. . . . . . . . . . . . . . . . . . . . . . . . . . . . . . . %+&+. . . . . . . . . . . . *+=+@ . . . . . . . . . ",
". . . . . . . x.. . . . . . . . . . . . . l x.. . . . . . . . . . . . . . . . . . . . . . . . . . . . . . . l @ . . . . . . . . . . . . x.x.. . . . . . . . . . "};
